<?xml version="1.0" encoding="UTF-8" standalone="no"?>
<!-- Generator: Adobe Illustrator 13.0.0, SVG Export Plug-In . SVG Version: 6.00 Build 14948)  -->

<svg
   xmlns:dc="http://purl.org/dc/elements/1.1/"
   xmlns:cc="http://creativecommons.org/ns#"
   xmlns:rdf="http://www.w3.org/1999/02/22-rdf-syntax-ns#"
   xmlns:svg="http://www.w3.org/2000/svg"
   xmlns="http://www.w3.org/2000/svg"
   xmlns:sodipodi="http://sodipodi.sourceforge.net/DTD/sodipodi-0.dtd"
   xmlns:inkscape="http://www.inkscape.org/namespaces/inkscape"
   version="1.1"
   x="0px"
   y="0px"
   width="790px"
   height="1178px"
   viewBox="0 0 790 1178"
   enable-background="new 0 0 790 1178"
   xml:space="preserve"
   id="svg3336"
   inkscape:version="0.91 r13725"
   sodipodi:docname="blue_maine.svg"><metadata
     id="metadata3410"><rdf:RDF><cc:Work
         rdf:about=""><dc:format>image/svg+xml</dc:format><dc:type
           rdf:resource="http://purl.org/dc/dcmitype/StillImage" /><dc:title></dc:title></cc:Work></rdf:RDF></metadata><defs
     id="defs3408" /><sodipodi:namedview
     pagecolor="#ffffff"
     bordercolor="#666666"
     borderopacity="1"
     objecttolerance="10"
     gridtolerance="10"
     guidetolerance="10"
     inkscape:pageopacity="0"
     inkscape:pageshadow="2"
     inkscape:window-width="1208"
     inkscape:window-height="751"
     id="namedview3406"
     showgrid="false"
     inkscape:zoom="0.62"
     inkscape:cx="493.72177"
     inkscape:cy="599.44144"
     inkscape:window-x="0"
     inkscape:window-y="0"
     inkscape:window-maximized="0"
     inkscape:current-layer="svg3336" /><g
     id="Waldo_County"><path
       fill-rule="evenodd"
       clip-rule="evenodd"
       fill="#C1C1C1"
       d="M330.958,725.909c3.056-0.723,3.644,1.022,6,1   c1.44,2.56,0.946,7.053,3,8.999c8.432,0.1,14.505-2.16,21.997-3c2.473,6.526,2.385,15.613,5,21.997   c15.732-4.323,39.049-7.239,54.993-10.998c5.265-1.241,8.498-5.47,12.998-1c-13.707,17.37,12.854,34.303-2.999,51.993   c-0.182,2.182,0.818,3.182,2.999,3c-1.501,1.498-2.991,3.008-3.999,4.999c-2.931-0.847,0.598-3.219,0-4.999   c-7.633-1.627-15.356,5.147-20.997,10.998c-2.133-2.2-6.319-2.347-9.999-2.999c4.219,12.247,15.656,19.869,9.999,33.995   c-3.45,2.384-5.838-0.028-8.999,3c0.89,5.556-1.921,7.412-2,11.998c-4.538-5.073-11.79-1.394-16.998-2.999   c-13.169-4.06-17.648-22.241-28.996-27.997c-5.084,4.249-9.75,8.915-13.999,13.999c-4.375-1.958-5.799-6.866-9.999-8.999   c-2.903,6.839-12.261,2.555-17.998,1c3.279-9.72,6.921-19.076,10.999-27.997c2.395,0.605,4.562,1.438,7.999,1   c3.057-6.274,2.789-15.875,4.999-22.997c-0.314-3.686-5.647-2.352-7.999-3.999c1.286-7.381,2.714-14.617,4-21.998   c-2.152-2.847-8.661-1.337-11.999-2.999C325.609,743.035,327.009,735.469,330.958,725.909z"
       id="path3339" /><path
       fill-rule="evenodd"
       clip-rule="evenodd"
       fill="#C1C1C1"
       d="M420.947,822.897c1.666,0,3.333,0,4.999,0   c-5.257,11.117-0.924,25.695-8.998,33.995c0.812-3.297,4.513-11.249-1-11.998c-0.043-3.709,3.749-3.583,4.999-5.999   C419.546,831.257,422.35,830.535,420.947,822.897z"
       id="path3341" /></g><g
     id="Kennebec_County"><path
       fill-rule="evenodd"
       clip-rule="evenodd"
       fill="#C1C1C1"
       d="M311.961,735.908c0.998,3.428-0.567,10.749,6,10.998   c-1.117,1.55-3.25,2.083-3,5c1.94,3.059,7.31,2.689,11.999,2.999c1.071,5.938-2.957,14.894-3,22.997c1.453,1.547,3.9,2.1,6.999,2   c-0.064,7.602-1.505,13.826-3,19.998c-3.156,0.489-3.531-1.802-6.999-1c-9.452,14.212-13.314,34.013-18.998,51.993   c-7.128-0.537-12.711-2.621-18.998-3.999c-7.51,6.823-4.987,26.733-4,38.995c-15.664-1.698-41.529-23.963-43.995,3.999   c-7.249-1.75-15.386-2.611-20.998-5.999c0.722-4.944,3.918-7.414,6-10.999c-3.847-3.819-11.49-3.841-14.998-7.999   c1.886-18.218-2.462-30.2-7.999-40.995c6.634-6.975-0.71-19.632-1-28.996c6.148-0.511,9.866,1.015,13.998,0   c5.774-7.184,4.048-9.439-3-13.998c1.314-5.019,4.125-8.539,5.999-12.998c3.737,1.929,8.171,3.161,12.999,3.999   c3.688-1.311,4.752-5.247,6-8.999c8.347-2.995,19.873-3.279,18.998,7.999c2,0,4,0,5.999,0c2.801-0.531,1.849-4.817,3-6.999   c7.607,5.392,20.641,5.356,29.997,8.999c6.752-2.464,3.094-9.549,6.999-13.998c-1.752-7.58-10.006-8.658-8.999-18.998   C295.975,738.586,303.624,736.903,311.961,735.908z"
       id="path3344" /></g><g
     id="Somerset_County"><path
       fill-rule="evenodd"
       clip-rule="evenodd"
       fill="#C1C1C1"
       d="M222.972,250.969c14.421,2.243,32.93,0.399,48.994,1   c-0.719,52.156-3.497,99.144-3,153.98c4.771,0.772,6.436-1.563,10.999-1c0.243,10.789,7.748,25.205,0,31.996   c-3.192-1.14-1.916-6.75-4.999-7.999c-3.19-0.857-3.093,1.574-5,2c-0.295,3.961,1.221,6.111,3,7.999   c-3.834,5.925-0.901,13.235-5,21.997c-5.32,0.654-4.749-4.583-7.999-5.999c-2.353,3.979-2.424,10.241-6.999,11.998   c3.716,4.349,3.696,6.763,6,12.999c1.889,4.11,8.747,3.251,7.999,9.999c2.983,1.433,3.399-0.816,5.999,1   c-0.027,11.358-4.209,22.605-13.998,26.997c11.577,46.84,15.267,95.86,28.996,140.983c8.954-0.379,15.318-3.347,23.997-4   c2.567-2.143-0.837-5.587,1-6.999c7.596-1.199,17.76-4.727,23.997-3.999c4.66,30.563,11.832,57.258,13.998,87.988   c-3.868-0.535-4.881,1.785-8.999,1c-1.5-2.832-1.117-7.549-3-9.999c-2.666,0-5.333,0-7.999,0   c-8.863,4.554-4.106,21.24-14.998,19.998c-1.167-1.913,4.502-5.443,1-9.999c-8.825-0.714-21.535,3.046-31.996,4   c-0.995,10.993,3.684,16.313,8.999,20.997c-2.02,4.204-2.782,7.044-3,10.999c-11.541-1.458-21.971-4.026-30.997-7.999   c-4.896-0.564-0.775,7.89-5.999,6.999c-0.088-9.975-12.663-12.059-20.998-7.999c-2.822-4.844-5.944-9.387-5.999-16.998   c-1.289-1.378-4.343-0.989-6.999-1c-4.623-13.312,4.425-28.27-6-35.995c3.203-3.06,1.462-9.052,0-12.999   c-5.737,0.929-12.058,1.274-16.998,3c-2.74-6.872-3.128-13.247-4-19.998c2.403-1.263,6.046-1.286,7.999-2.999   c-3.246-16.085-6.721-31.941-8.999-48.994c-9.166-0.045-19.335,3.83-25.997,3c0.782-4.449-1.332-6.001-1-9.999   c-5.28-7.318-14.668,0.19-19.998,2c-11.17-43.772-14.453-89.498-21.998-132.983c10.332,0.144,11.17-12.764,20.998-9.999   c3.602-3.397,7.464-6.534,9.999-10.999c-0.881-5.119-4.375-7.624-6-11.999c7.549-5.449,9.292-16.706,20.998-17.998   c4.359-3.307,6.498-8.833,10.999-11.999c1.366-4.366-3.872-2.128-3-6c2.332-0.334,4.308-1.025,4.999-3   c-2.74-4.593-5.656-9.008-11.999-9.999c3.537-2.548,1.609-8.027-2-8.999c5.595-3.618-1.722-10.231,6.999-11.999   c-3.611-6.072-1.036-9.678,6-9.999c-2.444-7.75,1.942-7.767,2-14.998c-0.694-4.971-6.44-4.892-8.999-7.999   c2.268-9.064,8.588-14.075,7.999-25.997c3.066-1.267,5.261-3.405,7.999-5c-3.652-7.579,4.286-7.943,5-13.998   c1.161,0.839,2.681,1.319,5,1c1.616-4.05,5.849-5.483,5.999-10.999c3.028-1.304,8.245-0.421,9.999-3   C217.886,277.878,219.134,263.129,222.972,250.969z"
       id="path3347" /></g><g
     id="Androscoggin_County"><path
       fill-rule="evenodd"
       clip-rule="evenodd"
       fill="#C1C1C1"
       d="M214.973,872.891c-1.86,3.14-3.242,6.757-4,10.999   c-0.788,4.12,4.787,1.878,4,5.999c-2.238,12.238-8.309,25.469-6,36.995c-3.962,7.39-9.713,8.387-13.998,13.999   c-5.102-2.854-12.641-7.111-19.998-14.999c-10.179-10.912-17.222-26.725-24.997-5.999c-6.767-4.516-14.982-3.543-20.998-9.998   c-1.189-11.072,6.491-16.317,12.999-24.997c6.583-8.781,9.015-16.633,16.998-19.998c3.558-13.106,7.631-25.698,11.999-37.995   c-1.986-6.346-3.299-13.365-3-21.997c6.776-4.89,13.557-9.773,24.997-9.999c1.047,7.618,2.77,14.562,4,21.997   c-7.46,6.969,1.798,17.985,4.999,25.997c0,7.666,0,15.331,0,22.997C206.05,870.626,206.897,872.385,214.973,872.891z"
       id="path3350" /></g><g
     id="Knox_County"><path
       fill-rule="evenodd"
       clip-rule="evenodd"
       fill="#C1C1C1"
       d="M386.952,887.889c-0.697,2.636-4.552,2.114-5,5   c0.605,2.395,1.438,4.562,1,7.999c4.283,0.616,4.077-3.256,7.999-3c2.5,4.013-5.491,4.803-3,11.999   c-6.297,1.297-6.139-3.86-8.999-6c-1.247,2.062-3.81,10.184,1,9.999c-1.123,2.543-2.456,4.876-4,6.999   c-1.204-1.129-1.812-2.854-5-2c-1.395,4.149-3.517,1.355-6,4c2.194,4.514-5.398,7.689,0,8.999   c-0.691,4.975-7.583,3.748-8.999,7.999c-5.108-5.731,4.565-6.181,1-12.999c9.007-3.658,9.347-15.982,15.998-21.997   c0.582-3.581-2.959-3.04-5.999-3c-1.993,4.207-3.336,6.782-5,12.999c-8.034,1.964-9.545,10.452-13.998,15.998   c-2.524-2.269,1.32-6.622,2-8.999c-0.19-0.811-1.003-0.996-1-2c-3.555,1.111-8.234,1.099-7.999,5.999   c-1.987-0.013-1.271-2.728-4-1.999c0.126-2.873,1.251-4.748,4.999-4c3.085-4.914,3.97-12.027,8.999-14.998   c-5.415-13.115-2.801-25.636-8.999-39.995c-17.681,4.825-23.094-10.765-20.997-25.996c5.364,1.031,5.912-2.754,7.999-5   c3.991,1.675,5.13,6.202,8.999,7.999c6.078-3.921,9.091-10.907,15.998-13.998c7.593,10.405,17.294,18.701,25.997,27.996   c3.668-1.584,13.7-2.005,15.998,1c-0.542,6.79-5.411,9.254-3.999,17.998c-1.793,0.127-2.109-1.224-4-1   C389.372,879.757,382.097,884.933,386.952,887.889z"
       id="path3353" /><path
       fill-rule="evenodd"
       clip-rule="evenodd"
       fill="#C1C1C1"
       d="M475.94,899.888c1.341,4.556,0.383,8.106-1,13.998   c-3.295,1.553-4.996,0.897-6.999,2C469.51,911.493,467.57,900.985,475.94,899.888z"
       id="path3355" /><path
       fill-rule="evenodd"
       clip-rule="evenodd"
       fill="#C1C1C1"
       d="M434.945,888.889c6.155,1.671-0.319,4.797,1,9.999   c0.276,3.391,6.573,0.76,6.999,3.999c-2.128,2.872-4.879,5.12-5.999,8.999c-3.359,1.026-1.557-3.109-2-4.999   c-3.058-0.726-2.94,1.725-5.999,1c0.452-4.683-2.288-6.299-3-11.999c-1.666,0-3.332,0-4.999,0c0.329-2.337,1.202-4.131,2-5.999   c0.89,0.776,2.258,1.075,3.999,1c-0.318,2.318,0.161,3.839,1,4.999C431.794,895.069,431.721,890.33,434.945,888.889z"
       id="path3357" /><path
       fill-rule="evenodd"
       clip-rule="evenodd"
       fill="#C1C1C1"
       d="M435.945,873.891c-1.529,3.18-0.351,4.398,0,7.999   c-9.667,0.835-11.917,3.671-19.997,4.999C422.858,882.801,426.15,875.094,435.945,873.891z"
       id="path3359" /></g><g
     id="Franklin_County"><path
       fill-rule="evenodd"
       clip-rule="evenodd"
       fill="#C1C1C1"
       d="M141.982,621.922c9.444,1.779,10.41-4.921,17.998-4.999   c3.518,2.481,3.108,8.891,4,13.998c8.903-0.762,17.142-2.189,24.997-3.999c2.132,14.437,6.117,27.98,7.999,44.994   c-2.656,0.01-5.71-0.378-7,1c-1.531,10.906,1.765,15.003,4,25.996c7.066,0.835,13.148-3.865,18.998-0.999   c-5.272,6.952-0.214,13.532,4,18.997c-4.677,7.107-0.754,20.597,2,28.996c2.826,0.827,2.59-1.409,5-0.999   c-2.692,7.949,10.855,15.658,2,23.997c-4.728-1.271-9.27-2.729-13.998-4c-4.395,3.938-5.679,10.985-8.999,15.998   c1.029,3.304,4.186,4.479,6.999,5.999c-0.429,1.904-2.154,2.512-2,5c-10.33-2.07-25.236,0.915-33.996,3.999   c1.207-7.205-2.457-9.542-6.999-10.998c0.504-7.693-4.998-9.195,0-13.999c-12.997-6-29.947-8.048-45.994-10.998   c-0.74-3.406,3.685-1.648,4-4c-4.428-16.902-12.271-30.39-17.998-45.994c-10.641,3.024-18.236,9.094-26.997,13.998   c-0.346-26.023-5.462-45.391-9.999-68.991c2.288-1.045,6.031-0.635,7.999-2c-1.93-11.796-3.049-25.472-5-40.994   c-2.144-17.063-7.284-28.734,2-37.996c-2.252-5.511-2.66-10.924,2-13.998c-0.234-3.766-3.766-4.234-4-7.999   c2.054-0.279,1.996-2.671,3-4c3.868-0.535,4.881,1.785,8.999,1c1.714,1.953,1.737,5.596,3,7.999c6.244-0.911,10.09,0.576,11.999,4   c2.826,0.826,2.59-1.409,5-1c6.202-6.403,2.522-21.252-6.999-20.998c1.865-6.104-4.645-6.58-5-10.999   c-0.531-6.626,4.023-7.938,6.999-12.999c0.731-1.244-0.581-3.665,0-5c4.149-9.528,18.141-12.323,18.998-20.997   C128.801,530.417,131.609,578.856,141.982,621.922z"
       id="path3362" /></g><g
     id="Sagadahoc_County"><path
       fill-rule="evenodd"
       clip-rule="evenodd"
       fill="#C1C1C1"
       d="M268.966,973.878c-1.759,0.241-2.279,1.721-2,4   c-3.237-3.252-3.893,1.182-5,2.999c-2.657-3.355-4.838-10.256-2-16.997c-6.191,0.989-1.137-3.892-4-8.999   c-11.563,8.307-1.958,25-2,33.995c-6.331-0.665-6.737,4.596-9.999,6.999c0.53-4.469,2.351-7.647,3-11.998   c-0.658-2.994-2.137,0.956-4,0c0.664-4.663-1.576-6.424-2-9.999c2.319,0.319,3.839-0.16,5-1c-2.003-3.675-0.09-6.723,0-10.998   c-0.658-2.995-2.137,0.956-4,0c2.2-7.866,2.038-20.457-2-28.997c-7.027,4.409-9.67,9.173-18.998,7   c-4.495-4.837-7.599-11.065-10.999-16.998c4.681-8.491,3.619-22.999,7.999-33.996c5.091,2.242,12.686,1.979,16.998,5   c5.35-2.983,2.848-13.817,8.999-15.998c5.185,2.146,12.106,2.558,16.998,4.999c-3.421,9.91-5.051,21.612-9.999,29.996   c4.796,2.87,11.621,3.711,17.998,4.999c-0.79,11.039-4.271,25.836,3,31.996c-0.912,4.055-6.425,10.887-2,13.999   C267.663,967.386,265.877,969.721,268.966,973.878z"
       id="path3365" /></g><g
     id="Cumberland_County"><path
       fill-rule="evenodd"
       clip-rule="evenodd"
       fill="#C1C1C1"
       d="M219.973,959.88c-2.725-0.92,1.396-3.126,0-5.999   c-8.073,1.259-12.93,5.734-14.998,12.998c-1.352,0.169-1.999-5.085-3-2c-2.735-0.909,1.775-3.503-1-4.999   c-3.94,2.06-6.376,5.622-7,10.999c-5.87-1.204-6.83,2.502-7.999,5.999c-10.76-1.428-5.836,12.827-10.999,16.998   c-1.862-0.138-3.342-0.658-4-2c-4.287,3.429-0.517,8.765-5.999,10.999c0.359,2.64,2.402,3.597,5.999,2.999   c-0.745,3.921-5.895,3.438-5.999,7.999c2.365,3.259,5.664-0.923,7.999-1c-0.197,2.863-0.125,5.457,3,5   c-4.707,7.121,3.723,6.764,1,14.998c-4.378-1.365-5.142-0.124-8.999,1c-0.777-0.891-1.075-2.259-1-4   c-5.04,2.292-7.279,7.386-10.999,10.999c-0.135-3.198,0.986-7.651-3-6.999c-4.975-0.072-0.655,2.941-3,4.999   c-8.605-5.394-15.891-12.106-22.998-18.998c0.234-3.765,3.766-4.233,4-7.999c-3.383-8.948-11.84-12.822-15.998-20.997   c-3.657,0.343-4.576,3.424-6,5.999c-4.032-1.634-8.535-2.796-12.999-3.999c4.703-5.394-0.505-11.879,0-18.998   c-1.303-3.695-6.783-3.216-8.999-5.999c-4.219,0.447-5.392,3.941-10.999,3c-4.136-3.637-6.314-13.074-4-19.998   c9.512,4.61,3.288-13.632,9.999-14.998c0.745-3.077-2.745-1.922-2-4.999c1.992-1.008,3.501-2.498,4.999-4   c-6.783-10.214-11.35-22.646-25.997-24.997c0-1.999,0-3.999,0-5.999c2.039,0.295,1.96,2.706,4,3   c12.251-7.747,24.591-15.403,36.995-22.997c12.713,8.388-4.729,30.113,8.999,39.995c3.044-1.255,3.888-0.765,6,1   c3.245-1.755,4.999-5.001,6.999-7.999c9.078,7.454,18.818,11.218,26.997,14.998c4.047-2.619,6.117-7.215,8.999-10.999   c12.909,9.755,21.26,24.067,35.995,31.996c6.861-4.421,11.937-6.588,15.998-14.998c3.172,12.415,21.732,18.94,29.997,6.999   c-2.415,9.917-8.112,16.552-13.999,22.997C227.194,956.746,221.52,955.871,219.973,959.88z"
       id="path3368" /></g><g
     id="Lincoln_County"><path
       fill-rule="evenodd"
       clip-rule="evenodd"
       fill="#C1C1C1"
       d="M307.961,961.88c-2.143-8.485-2.397-14.523-5-20.997   c-2.637-0.305-2.579,2.087-3,3.999c-3.992-4.723-0.063-10.851-4-15.998c-7.9,4.812-5.841,20.136-2,27.996   c-0.259,0.137-9.401-0.178-5,4c-1.704,3.788-1.646-2.171-3-2c-4.832,1.167-3.492,8.507-6,11.999   c-3.927-5.564,1.284-22.664,3-31.996c-2.594-2.545-3.77-1.327-6-5c-2.384,2.949-2.903,7.763-5,10.999   c-1.149-8.99-2.771-20.898,2-26.997c-4.319-4.013-11.906-4.758-18.998-5.999c4.86-6.805,4.174-19.155,8.999-25.996   c5.638,1.028,10.601,2.73,15.998,3.999c4.479-9.07-2.138-28.56,3-38.995c15.848,5.611,28.179,2.501,25.997-16.998   c2.619-1.889,6.197,1.945,10.999,1c-5.957,14.125-0.37,39.437,19.998,32.996c6.199,12.788,1.101,25.344,7.999,35.995   c-5.631,1.368-3.916,10.082-8.999,11.999c-3.376-3.729-0.011-4.07,1-7.999c-1.275-5.058-5.706-6.959-8.999-9.999   c-5.048,2.229,0.229,6.497,1,8.999c-3.708-0.043-3.583,3.749-6,4.999c-1.319,4.652,3.32,3.347,2,7.999   c-1.768,0.878-2.919,3.169-5,1C315.182,934.653,315.33,946.221,307.961,961.88z"
       id="path3371" /></g><g
     id="Hancock_County"><path
       fill-rule="evenodd"
       clip-rule="evenodd"
       fill="#C1C1C1"
       d="M518.936,895.888c-1.232-2.827-1.232-6.171,0-8.999   c1.614,0.282,1.721-0.944,2.999-0.999C529.738,888.987,530.403,896.769,518.936,895.888z M519.935,892.889   C529.174,893.008,518.946,882.78,519.935,892.889L519.935,892.889z"
       id="path3374" /><path
       fill-rule="evenodd"
       clip-rule="evenodd"
       fill="#C1C1C1"
       d="M481.939,831.896c-1.342,5.103,3.075,11.047,6.999,13.999   c0.305,4.082-2.087,0.534-3.999,1c-2.617,7.617,6.881,7.322,3.999,11.998c-3.376-4.956-7.376-9.288-13.998-10.999   c-0.725-3.058,1.726-2.94,1-5.999c-10.555,3.868-19.311-2.385-22.997-10.998c-8.304-0.1-8.12,5.042-14.998,6.999   c-2.161-7.827,3.719-7.613,3.999-12.999c2.442,0.558,2.131,3.869,6,3c2.984-1.368,1.486-7.491-2-7.999   c-0.003-3.336,3.253-3.413,2.999-6.999c-4.763-1.278-9.349,3.637-10.998,5.999c-0.13-7.462,2.724-11.941,5.999-15.998   c-4.014-12.668,10.577-18.826,6.999-30.996c-4.808,0.668-3.18,2.57-2.999,6.999c-4.975-7.442-2.95,3.87-4,6.999   c-5.405-2.458-2.294-7.676-3.999-12.998c-3.643-11.369-10.995-16.932-1-28.996c3.45-0.118,4.648,2.017,3.999,5.999   c2.333,0,4.666,0,6.999,0c3.049-4.617,3.83-11.501,8.999-13.998c3.528,0.138,4.471,2.861,7.999,2.999   c3.865-1.468,4.794-5.871,6.999-8.999c11.271-0.727,19.984-4.012,30.996-4.999c-2.154-20.509-6.368-38.959-9.998-57.992   c6.827-2.172,15.281-2.716,22.997-4c0.508-9.507-3.508-14.489-3-23.997c7.912-0.42,14.519-2.146,20.997-3.999   c-0.552-11.78-3.821-20.843-4.999-31.996c13.497-2.834,28.394-4.27,40.995-7.999c6.259,23.404,10.345,48.981,13.998,74.99   c-7.885,0.447-14.18,2.484-20.997,4c3.79,23.872,8.775,46.551,12.998,69.991c0.241,1.759,1.72,2.279,4,1.999   c3.112,18.682,0.482,31.144,4.999,51.994c-1.87-1.463-1.18-5.486-4.999-5c-2.949,4.982,3.602,9.039,2.999,14.999   c1.794,0.127,2.109-1.225,4-1c1.343,2.322-0.139,7.471,3.999,6.999c-0.227,1.44-2.984,0.349-3,2c-3.228,0.895-1.404-3.262-2.999-4   c-1.907,0.426-1.81,2.856-4.999,2c2.419,4.854-2.355,12.415-6,16.998c-1.22-5.42,0.498-15.765-6.999-12.999   c-3.223-5.23-4.061-15.455,1-18.997c-1.795-4.871-10.365-2.967-10.999-8.999c-5.73-0.188-0.115,4.756-2.999,6.999   c-3.466-1.534-4.09-5.909-4-10.999c-3.654-3.677-11.455-3.209-9.998-11.998c2.506-1.679,6.585,1.265,7.999-3   c-3.351-7.077-13.407-0.891-17.998,2c-0.22,4.886,4.143,5.19,5.999,7.999c-0.43,1.57-3.145,0.854-2,4   c-2.221-1.113-2.708-3.957-4.999-5c-2.894,1.772-1.76,7.572-4.999,8.999c1.448,6.322,7.217-0.011,9.998,2   c-0.162,1.162,0.221,1.779,1,1.999c-1.608,4.2-5.782,4.147-1.999,8.999c-3.358-1.92-7.436-1.58-9.999-1.999   c0.259-4.926,0.386-9.719-5-8.999c-1.608,5.286,2.546,11.841-0.999,17.997c-5.006-2.921-5.297,6.399-9.999,7   c-0.273-8.939,4.647-21.089,0-27.997c-2.054,0.279-1.996,2.671-3,4c-2.492-1.444-9.66-5.67-11.998-1   c3.04,3.958,7.215,6.783,6.999,13.998c-1.85-0.15-0.614-3.386-2-4c-3.386,1.281-1.568,7.764-3.999,9.999   c-4.172-1.709-6.927-0.936-5,4c-3.8-0.533-5.543-3.122-9.998-3c4.124,8.306-2.34,12.181-2,21.997   C480.22,834.175,481.699,833.655,481.939,831.896z M547.932,773.903c0.122,2.544,1.455,3.877,3.999,3.999   C552.94,773.969,549.722,772.097,547.932,773.903z"
       id="path3376" /><path
       fill-rule="evenodd"
       clip-rule="evenodd"
       fill="#C1C1C1"
       d="M509.937,873.891c2.819,0.18,1.247,4.752,4.999,4   c-0.016,2.983-2.6,3.399-3,5.999c-3.715,0.382-2.613-4.052-6.999-3C505.688,877.642,509.394,877.347,509.937,873.891z"
       id="path3378" /><path
       fill-rule="evenodd"
       clip-rule="evenodd"
       fill="#C1C1C1"
       d="M456.942,862.893c5.16,2.947,6.557,6.147,14.999,3.999   c-2.315,2.222,0.339,3.899,0,6.999c-0.891,0.776-2.259,1.075-4,1c-0.93,10.438-7.046,0.834-10.999,0   c3.66-4.513,0.821-7.837-1.999-10.999C456.105,864.055,456.722,863.672,456.942,862.893z"
       id="path3380" /><path
       fill-rule="evenodd"
       clip-rule="evenodd"
       fill="#C1C1C1"
       d="M463.942,850.894c2.963,2.703,8.297,3.034,9.998,6.999   c-2.808,1.525-4.826,3.839-7.999,5c-1.619-1.714-0.93-5.736-4.999-5C460.5,854.117,462.914,853.198,463.942,850.894z"
       id="path3382" /><path
       fill-rule="evenodd"
       clip-rule="evenodd"
       fill="#C1C1C1"
       d="M492.938,821.897c3.053,2.613,4.365,6.966,3.999,12.998   c-2.465,0.132-4.817,0.151-5.999-1C492.147,830.439,493.646,827.271,492.938,821.897z"
       id="path3384" /><path
       fill-rule="evenodd"
       clip-rule="evenodd"
       fill="#C1C1C1"
       d="M539.933,807.899c1.051,7.614,5.216,12.115,11.998,13.998   c5.704,13.532-4.011,25.336-17.997,21.997c-4.779-3.887,1.636-18.967-6-19.998c-6.822,4.997,3.973,17.653,0,25.997   c0.691,1.975,2.668,2.666,5,3c-0.59,4.076-2.923,6.409-6.999,6.999c-3.704-4.522-9.966-4.143-13.999-9.999   c2.734-4.514-1.607-5.834-1.999-9.999c3.938-4.061,4.858-11.139,5.999-17.997c3.45-1.217,5.837-3.495,8.999-5   c1.282-4.405-4.785-4.096-2-6.999C527.914,810.055,532.343,807.953,539.933,807.899z"
       id="path3386" /></g><g
     id="Washington_County"><path
       fill-rule="evenodd"
       clip-rule="evenodd"
       fill="#C1C1C1"
       d="M745.906,643.92c9.313,6.944,10.065,19.132,10.999,29.996   c-3.78-1.448-1.919,2.747-4.999,1.999c-1.718-1.282-0.021-5.979-3-5.999c-2.873,0.127-4.748,1.251-3.999,5   c-3.516-0.151-2.402-4.931-6.999-4c-3.678,5.38,4.964,7.007,7.998,8.999c-1.388,1.278-0.611,4.721-1.999,5.999   c-2.854-4.01-9.147-9.247-14.998-6.999c-0.687,3.353,1.677,3.655,3.999,4c-4.361,6.932,15.701,10.513,5,21.997   c0.729,3.688,3.008-0.426,4.999,1.999c3.992-4.092,2.439-11.687,1-16.997c3.28,0.719,1.105,6.893,4.999,6.999   c2.168,0.168,0.453-3.547,1-5c2.826,0.827,2.59-1.409,4.999-0.999c-1.47,5.465-0.287,4.29,3,4.999c0.812,3.458-1.867,4.221,0,5.999   c3.819,0.487,3.13-3.536,4.999-4.999c2.442-2.535,2.131,2.107,6,1c0.327,2.405,1.145,9.431,2.999,6.999   c1.601,3.963-6.52,6.789-7.999,10.998c-3.871,2.082-1.634-1.49-5.999-1c-0.445,3.068-6.528,4.664-3,7   c-1.513,1.486-4.388,1.61-6.999,1.999c5.274,8.579-6.852,11.752-7.999,19.998c-3.769-0.769-4.779,1.22-7.999,1   c-0.086,1.419-0.165,2.831,1,2.999c-0.965,2.035-3.84,2.16-6.999,2c-0.739-3.663,2.459-5.556,0-7.999   c-3.146-0.479-3.908,1.424-5.999,2c0.31,3.022-1.11,7.776,2,7.999c-7.983,3.557-9.757-12.303-6-17.998   c-4.038-2.005-12.145,0.495-13.998,4c-4.765-0.962-0.438-4.835-3-8c-2.487-0.153-3.095,1.571-4.999,2   c1.172,3.027,3.034,5.358,1,8.999c3.384,0.949,3.471,5.194,5.999,6.999c-3.191,3.211-0.906,10.756-6.999,12.999   c-1.075-5.115,0.079-6.944-1-10.999c-4.026-1.026-4.442,1.557-5.999,3c-0.158,3.281,4.472,4.408,2,6.999   c-1.163-0.163-1.779,0.221-2,1c-3.272-1.576-2.044-3.851-6.999-2c3.12-3.621-2.226-5.179-2-8.999c-2.503-0.17-3.13,1.536-3.999,3   c-2.884-1.449-3.207-5.46-6-7c-4.224,1.307,1.221,4.689,0,8.999c-2.822,1.58-4.246-1.149-6.999,1c8.281,4.38,1.505,15.259,5,21.997   c-3.113,1.22-6.338,2.328-10.999,2c2.242-5.642-3.627-6.28-4.999-9.999c-3.206,0.794-4.521,3.479-4,7.999   c-5.287-3.193-4.864,4.14-7.999,6c-9.451-7.384,0.871-16.365-2.999-25.997c-5.332,3.334-3.977,13.355-7.999,17.998   c-1.256-4.113,2.918-10.45,0-15.998c-2.739,1.26-3.741,4.257-5,6.999c-1.439-0.227-0.349-2.984-1.999-3   c-1.794-0.127-2.109,1.225-4,1c0.595,2.071-1.235,6.568,1,6.999c-4.719,1.323-3.346,5.508-3.999,8.999   c-2.796-2.537-4.745-5.921-8-7.999c-1.439,5.459,6.434,10.217,7,16.998c-3.629,0.841-6.016,4.937-8.999,1   c-1.947,1.385-3.072,3.594-5.999,3.999c3.368,4.188,0.684,8.584,0.999,14.998c-4.416-5.687-6.396-11.652-4.999-20.997   c-0.31-1.357-2.504-0.829-3.999-1c-1.308-6.358-1.687-13.646-4-18.997c4.52-4.756,3.331-25.538-4.999-26.997   c-2.758-23.239-8.323-43.67-11.999-65.992c7.503-0.829,14.062-2.602,20.998-3.999c-2.266-27.731-8.82-51.173-12.999-76.99   c6.126-1.873,13.612-2.386,19.998-4c-4.054-32.859-11.637-63.975-19.998-94.988c13.811-5.521,29.764-8.898,45.994-11.999   c-0.007,3.34,4.017,2.649,5,5c1.78-0.553,4.152-0.514,4.999-2c5.606,12.852,17.724,17.431,30.996,15.998   c0.762,2.571,2.428,4.238,4.999,5c6.469-0.348,7.216-5.357,13.999-3c3.271,7.363-1.062,11.635,1,18.998   c-4.534-1.561-8.128,3.848-10.999,6.999c1.254,11.848,6.766,18.214,13.998,25.997c-0.496,8.169-6.636,10.696-5.999,19.998   c-2.487-0.154-3.096,1.571-4.999,2c-0.138,9.803,4.667,14.664,9.998,18.997c-0.805,6.805,1.387,10.612,6,11.999   c-2.773,9.544,10.709,9.402,13.998,15.998c5.015-0.651,6.83-4.502,10.998-5.999c-0.591-4.258,0.72-6.613,1-9.999   c2.632,1.034,3.368,3.965,5.999,4.999c4.612,0.055,9.775-0.443,12.999,1C738.408,625.794,749.249,631.396,745.906,643.92z"
       id="path3389" /></g><g
     id="Piscataquis_County"><path
       fill-rule="evenodd"
       clip-rule="evenodd"
       fill="#C1C1C1"
       d="M273.966,435.945c1.784-2.678,2.704,3.883,5,4   c5.349,0.684,3.711-5.621,8.999-4.999c-1.769-10.563-4.203-20.461-4.999-31.996c-3.089-2.589-7.109,0.295-10.999,0   c-1.061-52.159,2.656-95.345,3-150.981c53.297,1.295,120.628,1.44,158.979,2c-1.562,75.837,0.318,148.574-1.999,227.971   c-8.768,0.565-15.749,2.916-22.997,5c-0.62,9.812,1.475,29.824-2,39.995c5.616,2.014,12.646-2.487,19.997-2   c4.714,23.949,10.124,47.202,13.999,71.991c-6.051,1.282-12.243,2.422-17.998,3.999c0.447,7.885,2.484,14.18,3.999,20.997   c-39.416,7.245-77.348,15.974-116.985,22.997c-2.982,1.728,1.432,6.182-1,6.999c-5.58,2.087-13.152,2.18-18.998,4   c-12.697-44.437-16.581-91.504-27.997-136.983c12.207-2.562,11.537-19.529,15.998-26.997c-7.107-6.798-24.251-16.486-16.998-27.997   c0.743-5.242,6.858,3.322,8.999,0C273.641,453.845,275.973,445.114,273.966,435.945z"
       id="path3392" /></g><g
     id="York_County"><path
       fill-rule="evenodd"
       clip-rule="evenodd"
       fill="#C1C1C1"
       d="M74.991,973.878c8.341,0.01,10.984-3.103,17.998,0   c-0.63,7.682,4.496,13.078,0,18.998c1.636,4.363,8.359,3.64,8.999,8.999c3.711-1.964,2.708-3.435,6.999-1   c2.016-1.316,3.383-3.283,4-5.999c5.645,4.687,9.686,10.978,14.998,15.998c-0.593,3.739-3.496,5.169-5,7.999   c6.149,9.516,15.012,16.317,24.997,21.997c-5.298,4.887-5.998,14.929-3,22.997c1.926,1.941,4.023-1.052,6.999-1   c-6.193,2.806-7.277,10.721-14.998,11.998c-0.893,16.439-24.352,10.311-29.996,21.998c4.522,7.163-9.422,16.085-1,24.996   c-1.858,4.197-7.045,5.577-4,11.999c-4.341-0.342-5.246,2.753-6,5.999c-5.667,0.738-9.64-3.735-12.998,0   c0.721,3.612,5.074,3.592,8.999,4c0.177,2.556-3.734,8.654-4.999,12.998c-3.502-2.164-5.344-5.988-7.999-8.999   c-3.92-0.921-0.726,5.274-3,5.999c-13.858-3.142-16.882-21.427-10.999-35.995c-11.121-8.477-15.589-28.04-28.996-30.996   c-3.003-7.373-4.519-19.229,2-23.997c-3.266-10.988,0.726-18.188,2-28.996c-8.044-13.287-2.245-40.417-4-59.993   C46.844,971.431,68.642,962.748,74.991,973.878z"
       id="path3395" /></g><g
     id="Oxford_County"><path
       fill-rule="evenodd"
       clip-rule="evenodd"
       fill="#C1C1C1"
       d="M38.995,569.929c5.379,1.286,7.77,5.43,12.999,8.999   c-4.606,8.059,5.248,15.05,8.999,20.997c4.35,1.938,5.534-4.358,7-2c2.604,17.395,4.225,35.771,6.999,52.994   c-3.708-0.709-4.291,1.708-7.999,0.999c2.893,25.771,10.902,46.425,9.999,75.991c10.798-3.534,17.613-11.05,28.997-13.998   c4.334,14.663,11.454,26.541,15.998,40.994c-3.225,0.775-5.909,2.091-7.999,4c12.183,7.813,32.915,7.08,46.994,12.998   c4.752,0.311-1.786,3.345-1,5.999c5.743,2.59,3.712,12.953,10.999,13.999c-0.319,2.318,0.161,3.838,1,4.999   c-0.206,4.46-5.82,3.512-6.999,6.999c4.726,23.976-2.781,39.155-7.999,57.993c-13.445,9.553-19.142,26.853-30.996,37.995   c0,2.333,0,4.666,0,6.999c-6.094-4.429-8.38,6.229-10.999,4.999c-1.862,0.956-3.342-2.994-4,0c-10.783-7.007-1.25-18.655-2-27.996   c-0.473-5.883-4.596-6.552-5.999-11.999c-14.153,6.178-26.826,13.836-37.996,22.997c-3.988,0.989-3.011-2.988-6.999-1.999   c-7.006,9.124,3.716,15.721,11.999,15.998c3.515,5.484,6.013,11.984,10.999,15.998c-5.605,8.087-4.219,21.309-12.998,27.996   c-0.673,5.006,0.926,7.739,1,11.998c-13.224,0.39-22.019,1.941-32.996,6c-3.497-132.522-4.11-261.591-10.999-394.951   C31.94,576.205,38.929,576.528,38.995,569.929z"
       id="path3398" /></g><g
     id="Penobscot_County"><path
       fill-rule="evenodd"
       clip-rule="evenodd"
       fill="#C1C1C1"
       d="M501.938,509.936c10.042,5.919,28.946-1.344,37.995-5.999   c10.931-3.067,21.987-6.009,33.995-7.999c6.508,31.124,14.292,60.58,18.998,90.989c-19.125,7.205-44.645,8.016-64.992,13.998   c0.693,11.64,4.052,20.612,5,31.996c-7.519,1.147-14.836,2.495-21.997,3.999c0.971,8.028,3.122,14.876,3.999,22.998   c-7.023,1.976-16.139,1.858-22.997,3.999c2.778,19.885,7.056,38.271,9.999,57.993c-11.329,4.336-31.062,0.268-33.996,12.998   c-3.977,0.31-5.022-2.31-8.999-2c-6.507,1.825-7.908,8.756-10.998,13.998c-2.877-7.752-12.058-4.863-15.998-9.998   c-17.765,5.767-42.044,8.673-61.993,14.998c-3.295-5.704-3.462-14.536-5-21.998c-4.737-0.737-6.874,1.125-10.999,1   c-2.855-29.852-8.694-59.039-14.998-87.988c29.737-6.925,61.496-11.829,90.989-18.998c-0.877-7.455-2.83-13.834-4-20.997   c6.497-0.836,12.446-2.22,17.998-4c-3.653-27.343-9.754-52.238-14.998-77.99c-6.549,0.45-10.697,3.301-17.998,3   c1.663-10.077,0.681-26.75,1-34.996c7.715-1.617,15.125-3.54,22.997-5c1.205-52.579,0.723-123.43,2-184.977   c20.781,1.199,45.758,2.466,63.992,3C500.564,370.75,505.216,438.055,501.938,509.936z"
       id="path3401" /></g><g
     id="Aroostook_County"><path
       fill-rule="evenodd"
       clip-rule="evenodd"
       fill="#C1C1C1"
       d="M435.945,250.969c-64.796-1.387-139.628-0.833-212.973-3   c0.15-35.78,23.161-56.307,38.995-78.99c34.537-49.475,68.282-98.502,102.987-145.982c11.527,0.394,16.396,9.616,27.997,6.999   c-3.94,13.811-1.747,33.583,2,47.994c8.34,4.991,18.827,7.836,22.997,16.998c20.208-3.076,28.533-19.345,49.994-15.998   c5.058-2.275,9.369-5.296,10.999-10.999c4.934,3.695,7.261-2.324,10.998-3c8.604,2.351,14.228,5.22,22.997,1   c1.763-4.967-0.25-8.692,1-14.998c12.626-6.175,20.434,0.615,31.996,3c8.526,15.115,25.803,20.2,36.995,32.996   c4.043,4.622,9.616,12.429,12.999,17.998c4.698,7.734,10.496,12.119,18.997,16.998c4.455,92.56-1.185,188.859,3,280.965   c0.214,4.708,0.493,12.465,2.999,16.998c-7.516,4.395-6.983,17.88,0,22.997c-0.005,3.661-5.865,1.467-4.999,6   c0.203,14.814-2.103,20.755-2,33.996c-4.904,0.732-9.327,1.553-13.998,0c-3.761-0.761-0.689,5.31-4.999,4   c-31.652,5.037-59.208,19.413-89.989,21.998c-1.515-37.419,3.835-63.817,2-91.989c-0.599-9.194-3.544-18.283-3.999-27.997   c-1.373-29.25,4.987-60.155,0.999-89.988c-19.359-0.997-45.652-1.845-67.991-3C435.945,280.965,435.945,265.967,435.945,250.969z"
       id="path3404" /></g><path
     style="fill:#60beef;fill-opacity:0.56129031"
     d="m 279.33336,766.61184 c -3.21002,-0.71214 -9.10212,-2.3876 -13.09356,-3.72324 -7.34417,-2.45754 -8.68595,-2.25189 -9.35313,1.43351 -0.5916,3.26794 -2.36626,2.95678 -4.08236,-0.71576 -2.21093,-4.73151 -7.97495,-6.83571 -14.86103,-5.4251 -4.88687,1.00105 -5.15301,0.92954 -6.77807,-1.82148 -0.93032,-1.5749 -2.34325,-5.42185 -3.13984,-8.54878 -1.3234,-5.1948 -1.72995,-5.71357 -4.71201,-6.01259 -4.14651,-0.41577 -4.58531,-2.26339 -4.21537,-17.74945 0.24308,-10.17581 0.005,-12.12191 -1.81413,-14.85626 -1.51775,-2.28081 -2.0203,-4.60637 -1.82651,-8.45235 0.40762,-8.09013 -0.20814,-8.5254 -9.85815,-6.96869 -4.48089,0.72284 -8.35766,1.10366 -8.61506,0.84627 -0.61705,-0.61706 -3.56282,-14.56726 -3.58646,-16.98438 -0.0123,-1.26199 1.06219,-2.09969 3.25626,-2.5385 1.80108,-0.36021 3.5276,-1.314 3.83671,-2.11953 0.30911,-0.80553 -1.13743,-10.40746 -3.21453,-21.33764 -2.07709,-10.93018 -4.06401,-21.66376 -4.41537,-23.8524 -0.75965,-4.73194 -1.45319,-4.8342 -15.78428,-2.32743 -5.17288,0.90483 -9.58942,1.46095 -9.81453,1.23585 -0.22512,-0.22511 -0.84318,-2.73177 -1.37349,-5.57033 -1.56836,-8.39506 -5.24006,-9.7143 -14.73457,-5.29415 -4.01815,1.87065 -5.74082,2.24498 -6.05666,1.31609 -3.29106,-9.67893 -7.94932,-36.26001 -14.83492,-84.65134 -3.27625,-23.02512 -6.22524,-42.93829 -6.55331,-44.25148 -0.47483,-1.90059 -0.14735,-2.38761 1.60544,-2.38761 1.21107,0 4.62144,-2.14885 7.57859,-4.77523 3.67943,-3.26785 6.32455,-4.77523 8.37951,-4.77523 2.23079,0 4.26794,-1.35248 7.92329,-5.26035 2.70624,-2.89319 4.92044,-5.80733 4.92044,-6.47586 0,-0.66854 -1.26624,-3.4681 -2.81386,-6.22126 l -2.81386,-5.00573 6.22342,-7.61788 c 4.55247,-5.57253 7.43128,-8.07918 10.72204,-9.33593 2.94814,-1.12591 6.34473,-3.84055 9.85497,-7.87636 5.72095,-6.57752 6.2718,-7.86984 3.76459,-8.83195 -2.24702,-0.86226 -1.97559,-2.45183 0.53059,-3.10721 1.18477,-0.30983 2.12232,-1.44744 2.12232,-2.57522 0,-2.32999 -5.55822,-8.39038 -8.57259,-9.34711 -1.56123,-0.49552 -1.8879,-1.26738 -1.38478,-3.27198 0.43376,-1.72824 0.0435,-3.30301 -1.14364,-4.61478 -1.40845,-1.55632 -1.55182,-2.45892 -0.65635,-4.13212 0.63016,-1.17747 1.14574,-3.34924 1.14574,-4.82617 0,-1.50376 0.8438,-3.13692 1.91767,-3.71165 1.45732,-0.77993 1.81026,-1.94633 1.47024,-4.85886 -0.40362,-3.45733 -0.13527,-3.95041 2.74081,-5.036 3.33687,-1.25954 3.23718,-0.97559 5.19879,-14.80775 0.51601,-3.63865 0.26297,-4.08361 -3.77018,-6.62962 -4.80459,-3.03301 -4.81648,-1.97311 0.15576,-13.87667 1.46275,-3.50183 2.97477,-8.27706 3.36005,-10.61162 0.54154,-3.28139 1.53537,-4.79096 4.3794,-6.65201 2.91692,-1.90877 3.55349,-2.907 3.07346,-4.81962 -0.7956,-3.16989 5.18371,-10.95903 8.0519,-10.48907 2.00643,0.32876 8.44044,-7.21612 8.44044,-9.89774 0,-0.7133 1.84808,-1.59242 4.10683,-1.95361 2.25876,-0.36119 4.56455,-1.25789 5.12399,-1.99266 0.55943,-0.73477 2.05328,-8.49879 3.31967,-17.25338 1.26638,-8.75458 2.76986,-17.58875 3.34105,-19.63149 l 1.03854,-3.71407 24.16569,0.35571 c 13.29112,0.19564 24.24755,0.43669 24.34761,0.53565 0.10007,0.099 -0.48293,23.81504 -1.29554,52.70238 -0.81261,28.88735 -1.49138,63.44761 -1.50838,76.80059 l -0.0309,24.27814 5.2252,-0.69315 5.22522,-0.69314 1.16967,5.63432 c 3.0867,14.86853 3.29452,20.76192 0.84152,23.86463 -1.65774,2.0968 -2.53064,1.5827 -3.59115,-2.11503 -1.06351,-3.70829 -3.77284,-4.95443 -6.26853,-2.88318 -1.77303,1.47148 -2.04062,5.40035 -0.47446,6.96651 1.04867,1.04867 -1.22423,20.38375 -2.67145,22.7254 -1.12879,1.82641 -3.40396,1.11978 -5.19483,-1.61343 -2.41158,-3.68054 -3.2543,-3.3573 -5.31507,2.03874 -0.98546,2.5804 -2.48879,5.27013 -3.34074,5.97718 -1.00336,0.83272 -1.1986,1.70773 -0.55427,2.48409 0.54709,0.6592 2.01662,3.92986 3.26563,7.26814 1.56851,4.19222 3.22488,6.63311 5.35506,7.89144 1.69628,1.00202 3.55045,3.15951 4.12039,4.79443 0.77635,2.22704 1.72752,2.97258 3.79243,2.97258 2.59606,0 2.71745,0.2312 2.08929,3.97935 -1.52303,9.08777 -3.97698,14.43412 -8.75798,19.08071 l -4.79336,4.65862 2.31648,10.08444 c 1.27405,5.54645 5.42144,27.60298 9.21638,49.01451 6.62979,37.406 10.9885,58.68422 15.03918,73.41781 2.27406,8.27146 2.53445,8.35454 17.26257,5.50837 10.0045,-1.93335 10.08351,-1.97306 10.40682,-5.22968 0.17919,-1.80485 0.89548,-3.49676 1.59175,-3.75981 2.86595,-1.08274 20.97384,-4.22435 21.47278,-3.7254 0.29695,0.29694 1.27182,4.78565 2.16639,9.97489 0.89457,5.18925 3.23591,18.0304 5.20297,28.5359 4.40437,23.5224 7.45101,47.12676 6.23014,48.26886 -0.50067,0.46836 -2.41812,1.16889 -4.26098,1.55672 -3.14083,0.66098 -3.39502,0.48522 -4.05859,-2.8064 -1.45021,-7.19374 -1.47786,-7.22561 -6.27237,-7.22561 -5.62257,0 -8.13835,2.48837 -10.72852,10.61162 -2.02997,6.36636 -4.24424,9.55046 -6.64155,9.55046 -1.05735,0 -1.29589,-0.58268 -0.76022,-1.85704 3.43152,-8.1638 1.51359,-9.27405 -12.38229,-7.16783 -6.04241,0.91586 -13.01568,1.95346 -15.49614,2.30578 -4.40197,0.62526 -4.50994,0.7371 -4.50994,4.67191 0,5.12333 1.40431,8.79153 5.20937,13.60741 2.86967,3.63199 2.96372,4.08297 1.84925,8.86713 -1.33141,5.71549 -1.84486,5.86201 -12.36443,3.52824 z"
     id="path4234"
     inkscape:connector-curvature="0" /><path
     style="fill:#60beef;fill-opacity:0.56129031"
     d="m 288.032,647.36024 c -3.23043,-11.91226 -7.82013,-34.80243 -13.97846,-69.71467 -2.98558,-16.92553 -6.81075,-36.98149 -8.50038,-44.5688 -2.23852,-10.05209 -2.7293,-13.91336 -1.80877,-14.23093 3.83134,-1.32182 8.10403,-7.59016 10.58965,-15.53582 1.4513,-4.63929 2.94216,-9.16641 3.31301,-10.06026 0.47187,-1.13733 -1.53089,-3.43931 -6.67168,-7.66847 -9.24774,-7.60782 -12.6111,-13.69707 -10.72393,-19.41526 0.96885,-2.93565 1.65371,-3.62761 3.0055,-3.03664 4.94404,2.16135 6.75104,1.17505 8.91229,-4.86453 1.30651,-3.65105 2.14476,-8.91299 2.23872,-14.05309 0.0826,-4.51919 0.39346,-8.22 0.69079,-8.22401 0.29734,-0.004 1.13705,0.94775 1.86603,2.11503 1.82954,2.92955 3.60879,2.66451 7.57819,-1.12886 l 3.40204,-3.25117 -2.30065,-14.52329 c -1.26536,-7.98781 -2.47171,-15.12019 -2.68077,-15.84973 -0.24126,-0.8419 -2.39149,-1.32646 -5.8861,-1.32646 l -5.50597,0 0.74014,-34.35726 c 0.40708,-18.89649 1.18504,-45.75715 1.72881,-59.69035 0.54377,-13.9332 1.00207,-32.14878 1.01846,-40.47906 l 0.0298,-15.14597 45.89525,0.58065 c 25.24239,0.31936 60.81784,0.86287 79.05656,1.2078 l 33.16131,0.62716 -0.15021,77.07729 c -0.0827,42.39251 -0.44077,93.27678 -0.79587,113.07615 l -0.64567,35.99885 -11.1422,2.73356 -11.1422,2.73355 -0.66036,18.57033 c -0.36319,10.21368 -1.01119,19.406 -1.43998,20.42737 -0.66769,1.5904 -0.1655,1.85703 3.4976,1.85703 2.35248,0 6.69929,-0.55908 9.65961,-1.24241 2.96031,-0.68331 5.63676,-0.98801 5.94767,-0.6771 0.69255,0.69253 12.97879,62.54946 13.43918,67.66147 l 0.32998,3.66399 -8.84055,2.00609 -8.84055,2.0061 0.71996,5.23477 c 0.39599,2.87913 1.34649,7.60981 2.11225,10.51264 0.76574,2.90282 1.20073,5.27785 0.96663,5.27785 -0.2341,0 -25.38021,4.97598 -55.88024,11.05775 -30.50003,6.08176 -56.64841,11.21513 -58.1075,11.40749 -2.13027,0.28084 -2.75744,1.08144 -3.18349,4.06381 -0.51369,3.59585 -0.73322,3.7539 -6.89755,4.96573 -3.50184,0.68842 -7.61224,1.49856 -9.13423,1.80032 -2.65391,0.52618 -2.85798,0.2141 -4.98211,-7.61864 z"
     id="path4236"
     inkscape:connector-curvature="0" /><path
     style="fill:#60beef;fill-opacity:0.56129031"
     d="m 368.64261,747.69675 c -0.57976,-1.89682 -1.34941,-5.35886 -1.71033,-7.69342 -1.67925,-10.86176 -1.28448,-10.31091 -7.10272,-9.91106 -4.55864,0.31328 -5.29978,0.082 -5.64647,-1.76172 -0.21948,-1.16728 -1.42118,-9.76269 -2.67044,-19.10091 -1.24925,-9.33823 -4.43075,-27.88232 -7.07,-41.2091 -2.63925,-13.32678 -4.57032,-24.45882 -4.29128,-24.73787 0.27905,-0.27904 20.48515,-4.56772 44.90246,-9.53039 24.41731,-4.96267 44.62603,-9.25397 44.90827,-9.53621 0.28224,-0.28224 -0.30592,-4.49244 -1.30704,-9.356 -2.49431,-12.11773 -2.54401,-11.88413 2.68973,-12.64041 9.05231,-1.30805 12.4689,-2.74915 12.46526,-5.25776 -0.009,-6.25531 -13.38246,-73.75545 -14.95229,-75.46941 -0.77383,-0.84489 -8.10449,0.21935 -15.02214,2.18086 -1.71471,0.48621 -1.85703,-0.81197 -1.85703,-16.93898 l 0,-17.46554 7.68382,-1.73523 c 4.2261,-0.95437 9.40344,-2.0102 11.50519,-2.34629 l 3.82139,-0.61106 0.69599,-27.74667 c 0.38279,-15.26067 0.69696,-47.60646 0.69816,-71.87953 0.001,-24.27308 0.31743,-53.54615 0.70275,-65.05128 l 0.70058,-20.91842 5.4011,0.57571 c 2.97061,0.31664 16.86028,1.09616 30.86595,1.73226 14.00567,0.6361 25.70498,1.39656 25.99847,1.68992 1.38339,1.38276 2.94589,201.7882 1.60062,205.29393 -0.40458,1.05431 0.33037,2.0439 2.12541,2.86177 5.9467,2.7095 19.07442,0.76933 31.27445,-4.6221 6.59711,-2.91541 28.22043,-8.66457 34.51818,-9.17763 l 4.13596,-0.33694 4.54959,20.16207 c 7.26751,32.2069 14.30681,67.48844 13.75305,68.93152 -0.68428,1.78319 -14.16089,5.0434 -37.21902,9.00387 -23.30817,4.00341 -27.145,5.07796 -27.145,7.60224 0,1.04526 0.91289,6.81934 2.02863,12.83127 3.30392,17.80226 3.25817,16.74246 0.74546,17.27081 -1.23393,0.25946 -6.03133,1.21476 -10.66089,2.12289 -4.62956,0.90813 -8.5997,1.83346 -8.82253,2.0563 -0.22283,0.22283 0.51531,5.46815 1.64032,11.65626 1.12503,6.18811 1.86874,11.25111 1.65271,11.25111 -1.6073,0 -22.10552,3.33324 -22.41764,3.64536 -0.21828,0.21829 1.78602,12.76203 4.45401,27.87498 2.66799,15.11295 4.85088,28.23544 4.85088,29.16108 0,1.3026 -1.9786,1.95684 -8.75458,2.89475 -4.81502,0.66647 -10.99807,1.71815 -13.74013,2.33705 -4.87644,1.10066 -9.60259,4.38021 -10.59265,7.35042 -0.40855,1.22565 -1.21203,1.26875 -4.55066,0.24409 -5.44345,-1.67064 -8.94708,0.19053 -12.31704,6.54298 -1.41314,2.6638 -2.80881,4.69929 -3.10148,4.5233 -0.47145,-0.28348 -5.87638,-2.74863 -13.79665,-6.29253 -1.4591,-0.65287 -3.13043,-1.05258 -3.71407,-0.88824 -0.58364,0.16433 -12.52171,2.87229 -26.52904,6.01766 -14.00734,3.14538 -26.85233,6.19816 -28.54443,6.78394 -4.76739,1.65044 -5.69919,1.32537 -6.83284,-2.3837 z"
     id="path4238"
     inkscape:connector-curvature="0" /><path
     style="fill:#60beef;fill-opacity:0.56129031"
     d="m 505.74757,483.46745 c 0.36955,-13.5696 0.97308,-33.83188 1.34117,-45.02729 0.59767,-18.17765 0.4132,-21.86719 -1.72434,-34.48776 -2.11077,-12.46253 -2.31427,-16.32682 -1.72214,-32.70281 1.60161,-44.29467 1.90186,-65.47771 0.97764,-68.97552 l -0.98136,-3.71407 -26.99435,-1.23102 c -14.8469,-0.67706 -29.97887,-1.27397 -33.62662,-1.32645 l -6.63226,-0.0954 0,-22.67296 0,-22.67295 -60.75151,-0.67785 c -33.41334,-0.37281 -81.45132,-0.97895 -106.75107,-1.34699 l -45.99955,-0.66915 0.70946,-5.95787 c 2.36139,-19.83025 8.02509,-31.87005 26.80125,-56.97366 7.45394,-9.96587 22.86432,-31.55309 34.24528,-47.97158 l 20.69265,-29.85182 145.62261,-0.046 145.62261,-0.046 4.47076,4.8502 c 2.45891,2.6676 6.47431,6.02435 8.9231,7.45944 l 4.45234,2.60925 0.86995,16.1514 c 0.47848,8.88328 0.76818,58.41218 0.64379,110.06424 -0.23006,95.52981 0.92961,158.59754 3.07275,167.10866 1.00069,3.97413 0.92312,4.98461 -0.49124,6.39897 -4.21224,4.21223 -4.22182,13.0185 -0.0211,19.42953 1.71332,2.61487 1.6927,2.79208 -0.49385,4.24389 -1.53491,1.01915 -2.27601,2.60159 -2.26405,4.83442 0.01,1.82564 -0.55838,9.84914 -1.26258,17.83001 l -1.28035,14.51066 -3.41037,0.63979 c -1.8757,0.35188 -5.32111,0.33425 -7.65647,-0.0392 -3.52997,-0.56446 -4.30786,-0.36421 -4.61222,1.18733 -0.28106,1.43275 -2.60897,2.31911 -10.0208,3.8155 -5.31008,1.07206 -20.11328,5.07188 -32.89602,8.88847 -22.83616,6.81826 -40.91767,11.13658 -46.63091,11.13658 l -2.89408,0 0.67189,-24.67202 z"
     id="path4240"
     inkscape:connector-curvature="0" /><path
     style="fill:#60beef;fill-opacity:0.56129031"
     d="m 306.53732,105.69384 c 1.44469,-2.39487 41.95987,-59.434575 50.31222,-70.832555 9.39138,-12.815901 9.11856,-12.718363 20.99457,-7.505951 4.08682,1.793717 8.78311,3.261445 10.4362,3.261617 l 3.00562,3.13e-4 0.12933,17.774148 c 0.0822,11.301404 0.66803,19.886461 1.60858,23.574558 1.40315,5.502038 1.80589,5.982952 7.82938,9.349047 9.59738,5.363285 13.83615,8.513541 15.40859,11.451669 1.98011,3.699864 4.84518,2.967415 22.01848,-5.628968 13.0856,-6.550217 14.72449,-7.099581 22.81498,-7.647688 9.4881,-0.642793 13.84327,-2.72687 16.64729,-7.966213 0.90352,-1.68826 2.08128,-2.551728 2.99978,-2.199269 0.83172,0.319159 3.13179,-0.420663 5.11127,-1.644048 3.52733,-2.180013 3.75228,-2.188917 11.28784,-0.446824 6.6378,1.534544 8.26901,1.582874 11.93345,0.353569 l 4.24465,-1.423947 0.30924,-7.566689 0.30924,-7.56669 4.72031,-1.321603 c 5.12447,-1.434763 7.69795,-1.131782 19.22084,2.262915 6.44125,1.897621 8.03669,2.861398 10.61162,6.410277 1.66682,2.297276 8.52208,8.281862 15.23393,13.29908 6.71185,5.017219 13.58187,10.365303 15.26671,11.884631 3.03166,2.733865 14.61037,17.674591 16.64805,21.482051 1.02691,1.91879 -2.94251,1.97302 -144.4232,1.97302 -116.10263,0 -145.31756,-0.26785 -144.67897,-1.32645 z"
     id="path4242"
     inkscape:connector-curvature="0" /><path
     style="fill:#60beef;fill-opacity:0.56129031"
     d="m 595.1427,804.46085 c -1.20766,-2.6812 -2.00862,-6.85064 -2.00862,-10.45603 0,-4.9504 -0.34383,-6.08652 -1.97073,-6.51196 -1.0839,-0.28345 -1.97073,-0.64568 -1.97073,-0.80495 0,-0.15928 -0.73469,-4.16254 -1.63264,-8.89614 -1.29536,-6.82858 -1.38326,-9.53267 -0.42549,-13.08955 1.27555,-4.73703 0.60986,-13.43253 -1.31592,-17.18902 -0.62145,-1.21223 -2.21099,-3.39787 -3.5323,-4.85696 -1.58462,-1.74988 -2.63994,-4.63956 -3.10031,-8.4893 -0.38387,-3.21001 -2.99378,-17.53556 -5.79979,-31.83455 l -5.10184,-25.99817 10.17648,-1.93339 c 5.59707,-1.06337 10.33856,-2.09548 10.53666,-2.29356 0.90441,-0.90442 -2.55654,-23.6472 -7.40402,-48.65379 -2.9226,-15.07674 -5.0343,-27.69178 -4.69267,-28.03341 0.34163,-0.34163 4.799,-1.38735 9.90527,-2.32382 l 9.28412,-1.70266 -0.32011,-3.69053 c -1.15562,-13.32297 -9.01598,-51.96252 -15.71966,-77.27381 -2.06238,-7.78702 -3.59485,-14.3011 -3.40547,-14.47574 1.64074,-1.51301 39.00688,-11.1596 43.22683,-11.1596 0.68291,0 2.61648,1.01645 4.29682,2.25878 2.11465,1.56343 3.87591,2.05279 5.72124,1.58964 2.05074,-0.5147 2.81566,-0.19787 3.31415,1.37274 0.89762,2.82814 8.52209,9.52418 12.9526,11.37537 2.01931,0.84372 6.46313,1.71245 9.87515,1.93051 4.50411,0.28786 6.8094,1.0022 8.41469,2.6075 2.64373,2.64372 4.4412,2.7585 8.70115,0.55559 1.76068,-0.91049 4.48273,-1.50739 6.04898,-1.32645 2.82898,0.3268 2.84808,0.38688 2.89964,9.1169 0.0483,8.1773 -0.10952,8.82844 -2.27133,9.37102 -1.27778,0.3207 -3.62835,1.94533 -5.22348,3.61029 -2.57547,2.68822 -2.82132,3.55342 -2.19551,7.72662 0.6989,4.66059 4.75478,12.06851 10.50465,19.18633 l 2.98856,3.69956 -3.25386,7.41359 c -1.7896,4.07747 -3.25384,8.29474 -3.25384,9.37171 0,1.07696 -1.07442,2.42949 -2.38761,3.00562 -1.93991,0.85108 -2.32194,1.74393 -2.03735,4.76157 0.40927,4.33973 4.70765,12.22978 7.67069,14.08023 1.41702,0.88495 2.06008,2.47411 2.06008,5.09096 0,2.63887 0.77669,4.53407 2.53513,6.18604 1.39431,1.3099 2.81455,3.77879 3.15609,5.48644 0.46429,2.32146 2.16734,4.08772 6.75004,7.00055 3.37099,2.14266 6.28825,4.29346 6.48279,4.77957 0.65249,1.63037 3.58038,0.90614 8.22445,-2.03435 4.24056,-2.685 4.61196,-3.2786 4.64762,-7.42814 0.0428,-4.9835 0.89647,-5.54382 3.70984,-2.4351 1.38736,1.53303 3.54911,2.15653 8.27813,2.38762 5.05508,0.24704 6.64668,0.75094 7.57192,2.39733 0.64433,1.14651 3.07629,5.19892 5.40435,9.00535 3.24689,5.30873 4.27273,8.11787 4.40406,12.06002 0.1182,3.5485 0.84483,5.85629 2.34757,7.45588 3.09884,3.29856 6.23664,10.95668 7.02551,17.14648 0.37192,2.91819 0.89801,6.38023 1.16908,7.69342 0.33947,1.64449 -0.008,2.38762 -1.1191,2.38762 -0.88658,0 -1.61196,0.47752 -1.61196,1.06116 0,2.43593 -1.90661,0.81328 -2.49373,-2.12233 -0.75346,-3.76733 -4.17262,-4.37449 -6.21528,-1.10367 -1.19062,1.90648 -1.45337,1.93997 -3.15295,0.40188 -2.08917,-1.89067 -5.11663,-1.22676 -5.11663,1.12206 0,1.44438 2.69609,3.99341 6.85094,6.47729 1.41423,0.84545 1.55912,1.60042 0.7128,3.71406 -0.58423,1.4591 -1.09251,2.07613 -1.1295,1.37118 -0.0891,-1.69779 -8.66893,-6.67699 -11.50536,-6.67699 -3.33076,0 -4.07815,2.20505 -1.46469,4.32131 1.26014,1.0204 2.29117,2.52505 2.29117,3.34368 0,0.81862 1.39786,2.82764 3.10638,4.46451 4.71443,4.5167 6.03702,8.46797 3.91732,11.70305 -2.4501,3.7393 -2.14502,4.81882 1.36178,4.81882 2.46293,0 3.30035,-0.63302 4.18159,-3.16094 0.60605,-1.73853 0.87919,-4.96181 0.607,-7.16285 -0.40937,-3.31003 -0.31264,-3.58911 0.55944,-1.61428 1.35752,3.07413 4.05975,3.08065 4.49772,0.0108 0.1865,-1.30724 1.17309,-2.53574 2.19241,-2.73 1.3397,-0.25534 1.66911,0.12681 1.18863,1.37891 -0.46242,1.20505 0.047,1.91827 1.67427,2.34379 1.81971,0.47586 2.2028,1.1541 1.72567,3.05515 -0.92611,3.68989 1.52955,4.40166 4.09329,1.18642 1.6362,-2.05198 2.85369,-2.6263 4.5996,-2.16973 1.30592,0.3415 2.37734,1.16213 2.38094,1.8236 0.003,0.66148 0.73573,2.60103 1.62698,4.3101 1.59413,3.05697 1.54781,3.18143 -2.85264,7.66516 -3.50293,3.56923 -5.00692,4.42375 -6.93449,3.93996 -1.77837,-0.44634 -3.04008,0.0768 -4.54673,1.8853 -1.14692,1.3767 -2.1012,3.11193 -2.12062,3.85607 -0.0194,0.74414 -1.36736,1.61939 -2.99544,1.945 -2.61741,0.52348 -2.91396,0.98754 -2.56133,4.0081 0.31412,2.6906 -0.39583,4.3672 -3.3429,7.89463 -2.05795,2.46319 -4.02275,5.36396 -4.36621,6.44616 -0.41671,1.31292 -2.06532,2.198 -4.95481,2.66005 -3.64138,0.58228 -4.24331,1.02516 -3.78343,2.78373 0.34091,1.30365 0.0175,2.09129 -0.85872,2.09129 -0.77309,0 -2.19459,0.30276 -3.15891,0.67281 -1.50421,0.57721 -1.65082,0.12653 -1.03196,-3.17228 0.83425,-4.44685 -1.00024,-5.90987 -4.83619,-3.85693 -1.89398,1.01362 -2.23689,1.97987 -1.91192,5.38752 0.42971,4.50586 -0.18984,5.06276 -2.76618,2.48642 -2.39574,-2.39573 -3.09089,-6.16619 -2.27324,-12.32993 l 0.71549,-5.39361 -4.87398,0.54938 c -2.68069,0.30215 -5.77956,1.3689 -6.88638,2.37056 -2.33169,2.11015 -4.67962,1.17789 -3.96038,-1.57249 0.75494,-2.88688 -0.78259,-4.57157 -3.41091,-3.73737 -2.08566,0.66196 -2.23621,1.20655 -1.57146,5.68465 0.40434,2.72391 1.79037,6.51255 3.08007,8.41921 2.29988,3.40008 2.3105,3.57214 0.55368,8.96125 -2.0236,6.2074 -4.25747,7.93649 -4.27974,3.31266 -0.0363,-7.52685 -2.23526,-9.62273 -5.87563,-5.60016 -1.62614,1.79687 -1.74874,2.54302 -0.69505,4.23025 1.78364,2.85605 1.59652,4.20545 -0.57768,4.16594 -2.52323,-0.0458 -4.78391,-1.95292 -7.19307,-6.06794 -2.07874,-3.55063 -4.05154,-4.36815 -5.3747,-2.22724 -0.4935,0.79851 -1.7458,0.007 -3.61615,-2.28417 -3.32669,-4.07603 -5.82367,-3.62423 -4.15959,0.75262 1.3304,3.49922 0.45575,6.04996 -1.78031,5.1919 -2.70358,-1.03746 -3.70575,0.34988 -2.07093,2.86688 0.95002,1.46266 1.60003,5.68655 1.74332,11.32837 0.22048,8.68147 0.13925,9.02106 -2.32251,9.70997 -4.51047,1.26223 -7.30602,1.04639 -6.70581,-0.51773 0.68892,-1.79528 -4.48327,-8.10728 -6.6433,-8.10728 -0.87427,0 -2.13032,1.43257 -2.79122,3.18349 -0.66089,1.75092 -1.83543,3.18348 -2.61008,3.18348 -0.77465,0 -2.22191,1.42929 -3.21613,3.1762 -2.09079,3.67364 -3.39075,3.60918 -5.27857,-0.2617 -0.99759,-2.04549 -1.07338,-3.9584 -0.29123,-7.34977 1.35082,-5.85715 1.40427,-13.29688 0.10129,-14.10215 -1.24985,-0.77245 -3.02568,2.45569 -5.52756,10.04813 l -1.92323,5.83639 0.58239,-5.0544 c 1.00763,-8.74491 -1.79913,-11.84609 -4.78679,-5.28889 -0.92743,2.03547 -1.51091,2.4273 -2.12793,1.42895 -1.65662,-2.68047 -4.81969,-0.83625 -5.18816,3.02492 -0.19124,2.00402 -1.0269,4.61335 -1.85703,5.79853 -0.83013,1.18517 -1.51462,3.12303 -1.52109,4.30637 -0.01,1.82773 -0.42079,1.63251 -2.72982,-1.29729 -3.16533,-4.01631 -6.29669,-4.72782 -5.1689,-1.17449 0.397,1.25085 2.10051,4.44824 3.78557,7.10531 1.68507,2.65706 3.06376,5.20279 3.06376,5.65718 0,1.54457 -5.91201,3.94 -7.42154,3.00705 -2.31126,-1.42843 -7.32802,3.16764 -6.36617,5.83232 0.42135,1.16728 0.47267,4.258 0.11405,6.86826 l -0.65203,4.74594 -2.00863,-4.45942 z"
     id="path4244"
     inkscape:connector-curvature="0" /><path
     style="fill:#60beef;fill-opacity:0.56129031"
     d="m 479.89295,849.68747 c -2.82833,-1.53254 -3.71407,-2.69462 -3.71407,-4.87284 0,-2.74327 -0.20403,-2.84799 -4.98388,-2.55812 -6.5129,0.395 -11.96988,-2.24077 -15.4139,-7.44504 -3.33769,-5.04359 -5.78158,-5.19907 -11.828,-0.75248 -5.35548,3.93847 -7.77584,3.02983 -5.04919,-1.89555 0.92028,-1.66238 1.97389,-3.83643 2.34135,-4.8312 0.61368,-1.66135 0.8756,-1.67273 3.2152,-0.13977 2.04921,1.3427 2.8572,1.41156 4.13353,0.35231 2.14276,-1.77835 1.99552,-3.83116 -0.45023,-6.2769 -1.7743,-1.7743 -1.84699,-2.28692 -0.56433,-3.97936 0.80978,-1.06848 1.48751,-2.5396 1.50608,-3.26915 0.053,-2.08445 -4.7,-1.5513 -7.78186,0.87289 -2.68556,2.11245 -2.79601,2.11956 -2.79601,0.17985 0,-1.11073 1.1918,-4.36867 2.64846,-7.23987 1.45665,-2.87119 2.65046,-7.03576 2.6529,-9.2546 0.003,-2.55041 1.40921,-6.74876 3.82374,-11.41451 3.53485,-6.83061 5.01714,-13.73978 3.31329,-15.44364 -0.93906,-0.93905 -3.9491,1.59041 -3.9491,3.31859 0,0.74155 -0.71628,1.62313 -1.59174,1.95908 -1.01705,0.39028 -1.60393,2.05956 -1.62549,4.62347 -0.0316,3.75844 -0.13246,3.88216 -1.59175,1.95281 -0.85689,-1.13292 -1.55799,-3.8426 -1.55799,-6.0215 0,-2.17891 -1.48163,-7.66185 -3.29251,-12.18431 -3.53407,-8.8259 -3.6311,-13.1867 -0.40307,-18.11332 2.04459,-3.12043 5.15227,-2.87007 5.62642,0.45329 0.27557,1.93157 1.0181,2.37677 3.96408,2.37677 3.35735,0 3.8573,-0.46022 6.77161,-6.23344 3.61935,-7.1699 5.31667,-8.19416 9.76595,-5.89335 2.8399,1.46857 3.46631,1.47691 5.60638,0.0747 1.32509,-0.86825 3.01797,-3.04817 3.76195,-4.8443 1.04991,-2.53474 2.01029,-3.2657 4.29062,-3.2657 1.61586,0 7.57953,-0.95504 13.2526,-2.12232 5.67306,-1.16728 11.4559,-2.12232 12.85075,-2.12232 1.39485,0 2.53328,-0.35815 2.52984,-0.79588 -0.0205,-2.61092 -3.63501,-24.53328 -6.48575,-39.337 -1.92807,-10.01236 -2.93971,-17.71307 -2.39811,-18.25467 0.51523,-0.51523 4.51699,-1.45444 8.8928,-2.08713 12.86112,-1.85956 12.73125,-1.80582 12.73125,-5.2682 0,-1.70164 -0.73013,-6.56482 -1.62251,-10.80707 -0.89239,-4.24224 -1.3849,-8.33241 -1.09447,-9.08925 0.29043,-0.75684 1.99685,-1.37608 3.79205,-1.37608 1.79519,0 6.34665,-0.77433 10.11434,-1.72075 8.05101,-2.02235 7.81287,-1.12023 4.72802,-17.91074 -3.2197,-17.52446 -5.01104,-15.39415 16.18272,-19.24492 10.06777,-1.82925 19.06755,-3.64263 19.99952,-4.02972 1.42759,-0.59296 2.22014,1.71581 5.03207,14.65884 3.46713,15.9589 9.72146,52.32025 9.72146,56.51855 0,1.95194 -0.75134,2.53499 -3.97936,3.08799 -5.50242,0.94265 -15.2222,3.40602 -15.82748,4.0113 -0.56457,0.56457 1.95352,15.14598 8.34793,48.33986 3.59157,18.64425 4.70869,22.78175 6.26058,23.18758 2.18994,0.57268 2.51202,2.79557 4.14855,28.63124 0.59958,9.46532 1.40923,18.06073 1.79923,19.10091 0.61545,1.64152 0.47881,1.70404 -1.03486,0.47343 -1.8617,-1.51354 -3.96242,-0.868 -3.95432,1.21515 0.003,0.6951 1.07755,3.89666 2.38855,7.11456 1.67803,4.11878 2.89085,5.75306 4.09702,5.52077 1.17611,-0.22649 1.91651,0.68568 2.36117,2.90895 0.95241,4.76201 0.95386,4.73543 -0.28278,5.14764 -0.62741,0.20914 -1.14074,-0.65438 -1.14074,-1.91893 0,-1.46168 -0.48318,-2.07396 -1.32646,-1.68086 -0.72955,0.34008 -2.16211,0.9131 -3.18348,1.27336 -1.19571,0.42176 -1.85704,1.75972 -1.85704,3.75702 0,3.47106 -3.72034,11.50674 -5.32737,11.50674 -0.57178,0 -1.0396,-1.87598 -1.0396,-4.16884 0,-4.24684 -2.08939,-7.50394 -4.81368,-7.50394 -3.73088,0 -5.0913,-11.3017 -1.90756,-15.84712 1.68624,-2.40744 1.65624,-2.61478 -0.64814,-4.48076 -1.32891,-1.07608 -3.04491,-1.95651 -3.81335,-1.95651 -0.76844,0 -2.36771,-1.23384 -3.55392,-2.74187 -2.61792,-3.32813 -4.36426,-2.53956 -4.36426,1.97072 0,2.99462 -0.17022,3.17803 -1.61166,1.73659 -0.88641,-0.88641 -1.96084,-3.63415 -2.38761,-6.10608 -0.65606,-3.79997 -1.43182,-4.86087 -5.02061,-6.86597 -3.39274,-1.89556 -4.31138,-3.05844 -4.57717,-5.79409 -0.29283,-3.014 -0.0226,-3.42254 2.26385,-3.42254 1.70393,0 2.78714,0.72949 3.15138,2.12232 0.30525,1.16728 1.31599,2.12233 2.24608,2.12233 0.98365,0 1.69109,-0.88785 1.69109,-2.12233 0,-1.16728 -0.44431,-2.12232 -0.98736,-2.12232 -0.54304,0 -1.13995,-1.06481 -1.32645,-2.36627 -0.59122,-4.12568 -4.98308,-4.70218 -11.85491,-1.55616 -6.89002,3.15436 -7.73656,5.65077 -3.07516,9.06853 2.31158,1.69487 2.64768,2.41393 1.61682,3.45916 -1.03584,1.05028 -1.77117,0.90241 -3.60381,-0.72468 -1.43257,-1.27189 -2.4592,-1.59863 -2.71738,-0.86484 -0.22822,0.64865 -1.35272,3.01874 -2.49889,5.2669 -2.68076,5.25816 -1.2132,7.334 4.1064,5.80835 4.237,-1.21515 5.72798,0.99291 2.83157,4.19341 -1.05401,1.16468 -1.56048,2.79551 -1.17782,3.7927 0.49588,1.29224 0.22952,1.57987 -1.01926,1.10068 -0.92981,-0.35681 -2.84532,-0.64874 -4.25668,-0.64874 -2.04728,0 -2.56611,-0.55048 -2.56611,-2.72266 0,-3.94569 -1.86536,-6.82779 -4.4191,-6.82779 -2.10752,0 -2.18538,0.3726 -1.51008,7.22584 0.78693,7.98616 0.17737,10.81391 -2.33108,10.81391 -0.91642,0 -3.03687,1.55195 -4.71211,3.44878 l -3.0459,3.44877 0.8132,-8.48929 c 1.05973,-11.06293 0.84437,-16.39021 -0.72314,-17.88757 -0.95861,-0.91571 -1.53891,-0.80279 -2.36565,0.46033 -0.99117,1.51433 -1.52619,1.51878 -5.61973,0.0468 -3.75541,-1.35045 -4.80999,-1.3898 -6.20561,-0.23153 -1.50736,1.25099 -1.33426,1.87871 1.67276,6.06592 3.13212,4.3614 3.23036,4.76102 1.48422,6.03783 -1.02844,0.75201 -2.20497,3.00563 -2.6145,5.00803 -0.60353,2.95093 -1.23984,3.6448 -3.35841,3.66223 -1.86688,0.0154 -2.70768,0.68074 -2.94233,2.32852 -0.3134,2.20076 -0.49516,2.23743 -3.94528,0.79588 -5.20448,-2.17458 -5.74479,-1.9487 -5.08369,2.12517 0.34291,2.11313 -0.12955,5.74838 -1.12788,8.67833 -2.1463,6.29903 -2.21105,9.96973 -0.17589,9.96973 0.84815,0 2.44187,2.02947 3.54161,4.50993 1.09974,2.48047 2.79342,5.16532 3.76372,5.96632 2.36989,1.9564 2.23178,3.24244 -0.27772,2.58618 -1.5562,-0.40695 -2.12416,0.091 -2.38762,2.09368 l -0.34569,2.62762 -3.71406,-2.01246 z"
     id="path4246"
     inkscape:connector-curvature="0" /><path
     style="fill:#60beef;fill-opacity:0.56129031"
     d="m 388.57844,852.04545 c -10.91961,-0.84504 -11.65893,-1.40348 -26.66443,-20.14082 -7.87976,-9.83944 -7.99204,-9.85063 -16.22658,-1.6161 l -7.09251,7.09252 -4.75658,-4.65064 c -4.2326,-4.13834 -4.87233,-4.44608 -5.80737,-2.79361 -1.25555,2.21891 -9.36152,2.50027 -13.90696,0.48271 l -2.88059,-1.27858 5.26097,-13.29326 5.26096,-13.29326 4.1277,0.39364 c 2.27023,0.2165 4.43541,-0.10426 4.81151,-0.7128 0.3761,-0.60854 1.57088,-6.0255 2.65507,-12.03769 2.10297,-11.6617 1.74733,-13.58415 -2.51299,-13.58415 -1.29037,0 -2.59852,-0.2524 -2.90701,-0.56089 -0.30849,-0.30849 0.32055,-5.38047 1.39787,-11.27106 1.07732,-5.8906 1.70803,-11.11586 1.40158,-11.61171 -0.30645,-0.49584 -2.89666,-1.21187 -5.75603,-1.59118 l -5.19886,-0.68966 3.04336,-5.44279 c 1.67386,-2.99353 4.33347,-8.69346 5.91027,-12.66651 2.07722,-5.23396 3.29145,-7.0608 4.40822,-6.63226 0.84772,0.3253 1.96138,0.59146 2.47478,0.59146 0.51341,0 1.45443,1.93468 2.09116,4.29929 0.63672,2.36461 1.8838,4.57794 2.7713,4.9185 0.88749,0.34056 5.99583,-0.1072 11.35187,-0.99504 5.35604,-0.88783 9.84922,-1.51782 9.98484,-1.39999 0.13562,0.11784 1.18855,4.8968 2.33983,10.61992 1.15129,5.72313 2.23693,10.54937 2.41254,10.72498 0.17561,0.17561 3.18163,-0.33914 6.68004,-1.14388 3.49842,-0.80475 14.47864,-2.93444 24.4005,-4.73266 9.92187,-1.79821 21.47465,-4.26819 25.67286,-5.48885 4.19821,-1.22065 8.39324,-1.92767 9.32228,-1.57117 1.52914,0.58679 1.53485,0.9466 0.0603,3.79805 -2.3711,4.58521 -1.9754,13.22746 1.03761,22.66187 3.24889,10.17304 3.42554,18.0233 0.51306,22.80021 -2.37271,3.8916 -2.69618,6.23714 -0.94084,6.82226 0.73665,0.24555 0.538,0.92327 -0.53058,1.8101 -1.45062,1.20395 -1.70806,1.15812 -1.70806,-0.30407 0,-1.21177 -0.95847,-1.72168 -3.23618,-1.72168 -4.19969,0 -9.06703,2.49678 -13.91191,7.1363 -2.34425,2.2449 -4.39175,3.4049 -5.16568,2.92658 -0.70516,-0.43581 -2.89712,-1.15663 -4.87102,-1.60181 -4.86253,-1.09668 -4.70128,0.28484 1.2234,10.48153 5.10993,8.79447 6.47396,13.73864 5.38771,19.52884 -0.59361,3.16418 -1.18319,3.68551 -5.16745,4.56923 -2.66804,0.59179 -4.57749,1.645 -4.69432,2.58929 -0.82192,6.64374 -1.67471,9.52583 -2.77394,9.37471 -0.7031,-0.0967 -4.88435,-0.45481 -9.29167,-0.79587 z"
     id="path4248"
     inkscape:connector-curvature="0" /><path
     style="fill:#60beef;fill-opacity:0.56129031"
     d="m 224.90748,887.43163 c -11.0991,-2.68871 -12.09298,-3.98856 -7.65209,-10.00784 1.4591,-1.9777 2.65291,-3.98033 2.65291,-4.45031 0,-0.46999 -3.18572,-2.40669 -7.07937,-4.30379 l -7.07937,-3.44926 -0.24495,-10.13979 c -0.19954,-8.25987 -0.86673,-11.89952 -3.59867,-19.63149 -3.56358,-10.08564 -3.55114,-10.0007 -2.58525,-17.64471 0.37976,-3.00542 -0.0412,-7.91134 -1.06501,-12.41284 -0.93112,-4.09383 -1.69294,-7.94596 -1.69294,-8.5603 0,-0.66684 2.76868,-1.11697 6.8703,-1.11697 6.53469,0 6.94938,-0.15294 8.48929,-3.13079 2.36066,-4.56502 2.02606,-6.6282 -1.55744,-9.60315 l -3.19556,-2.65291 2.84431,-5.92013 2.8443,-5.92013 6.75619,2.06223 c 6.46821,1.97432 6.84463,1.98219 8.83099,0.18456 1.14114,-1.03271 2.07479,-2.51994 2.07479,-3.30494 0,-3.33782 4.11684,-5.67192 10.00402,-5.67192 4.95802,0 6.06539,0.38903 7.95872,2.79601 1.20963,1.53781 2.19934,3.71548 2.19934,4.83929 0,1.70898 0.64419,1.98939 3.93745,1.71392 3.19046,-0.26686 4.06,-0.83263 4.58344,-2.98225 0.70975,-2.91478 1.43837,-2.9721 8.4577,-0.66537 2.62637,0.86309 8.83417,2.51205 13.7951,3.66435 10.43262,2.42323 12.16159,1.77708 13.38345,-5.0017 0.38005,-2.10852 1.12017,-4.66502 1.6447,-5.68112 1.10365,-2.13793 -0.86739,-6.61341 -4.26794,-9.69086 -2.35202,-2.12855 -5.02897,-8.87233 -3.95013,-9.95117 0.60605,-0.60605 19.64787,-4.36051 22.63716,-4.46335 0.81788,-0.0281 1.32646,1.38236 1.32646,3.67882 0,2.37457 0.74712,4.36415 2.06137,5.48945 1.59786,1.36813 1.81991,2.21619 0.98752,3.77152 -1.60755,3.00373 0.59433,4.90144 6.61348,5.69991 2.85664,0.37895 5.19389,1.12513 5.19389,1.65819 0,0.53305 -0.74405,4.57138 -1.65346,8.97407 -2.21819,10.73899 -1.83092,13.56379 1.91875,13.99523 3.39896,0.3911 3.68127,2.53664 1.7745,13.48613 l -1.1437,6.56761 -3.88695,-0.11372 c -3.69656,-0.10815 -4.0508,0.19394 -7.23234,6.16762 -3.19941,6.00725 -6.65536,15.83747 -12.57152,35.75888 l -2.7156,9.1442 -4.86135,-0.9082 c -2.67374,-0.4995 -6.82491,-1.43692 -9.2248,-2.08315 -3.94643,-1.06267 -4.53815,-0.95922 -6.19128,1.08231 -3.05837,3.77692 -4.41626,13.26993 -3.61314,25.25936 0.64702,9.65912 0.5339,10.88879 -1.00169,10.88879 -0.9521,0 -6.83369,-1.92957 -13.07021,-4.28795 -14.45582,-5.46654 -18.74045,-6.0612 -23.25451,-3.22743 -2.54096,1.59514 -3.73866,3.39208 -4.63591,6.95541 -1.35557,5.38345 -1.44519,5.40947 -10.81495,3.13968 z"
     id="path4250"
     inkscape:connector-curvature="0" /><path
     style="fill:#60beef;fill-opacity:0.56129031"
     d="m 355.16685,937.84596 c -0.37067,-0.59974 0.0835,-2.24645 1.00927,-3.65934 0.92577,-1.4129 1.68322,-3.59141 1.68322,-4.84113 0,-1.24973 1.13425,-3.16444 2.52056,-4.25491 1.38632,-1.09047 4.50424,-5.79553 6.92871,-10.45568 2.42448,-4.66015 4.85079,-8.74657 5.3918,-9.08093 1.90636,-1.1782 -0.24769,-3.72346 -3.15115,-3.72346 -2.51023,0 -3.26815,0.76449 -5.19228,5.23724 -1.23915,2.88048 -2.27139,5.62624 -2.29387,6.10168 -0.0225,0.47544 -1.55335,1.81949 -3.40193,2.98677 -1.84858,1.16727 -5.02979,4.93911 -7.06935,8.38185 -3.7235,6.28518 -5.95507,6.83135 -2.77346,0.6788 0.93476,-1.80763 1.41311,-3.75009 1.06299,-4.31659 -1.13833,-1.84186 -4.79324,-1.08919 -7.40798,1.52554 -2.10845,2.10846 -2.76576,2.30224 -3.75718,1.10765 -1.5059,-1.8145 -0.44412,-3.66319 2.10393,-3.66319 1.34922,0 2.64448,-1.74449 4.27131,-5.75273 1.28417,-3.164 3.22,-6.55377 4.30183,-7.53281 1.58401,-1.43352 1.76204,-2.31908 0.91439,-4.54857 -0.57892,-1.52267 -1.99394,-8.91038 -3.14449,-16.41712 -1.15055,-7.50675 -2.71162,-15.16738 -3.46905,-17.02362 -1.29421,-3.17176 -1.70323,-3.37498 -6.79267,-3.37498 -9.63303,0 -14.81791,-6.04675 -15.86182,-18.49848 -0.60083,-7.1667 -0.52716,-7.49999 1.65784,-7.49999 1.25764,0 3.10436,-0.95504 4.10381,-2.12232 2.45622,-2.86866 3.03918,-2.72796 7.26584,1.75361 l 3.65548,3.87593 7.31228,-7.05942 c 4.02176,-3.88268 7.65666,-7.05942 8.07756,-7.05942 0.42089,0 2.72085,2.26824 5.11101,5.04052 2.39017,2.77229 8.1175,8.95093 12.72742,13.73031 l 8.38167,8.68978 5.09211,-0.60308 c 10.13751,-1.20064 12.22172,0.77781 8.98361,8.52772 -0.87546,2.09527 -1.59175,5.28966 -1.59175,7.09865 0,2.67982 -0.3525,3.1772 -1.903,2.68509 -1.59332,-0.5057 -2.13009,0.41956 -3.29835,5.68558 -0.76744,3.45927 -1.18609,6.91732 -0.93035,7.68455 0.25574,0.76724 -0.54523,2.18961 -1.77994,3.16083 -1.79068,1.40855 -2.16105,2.64536 -1.83041,6.11246 0.44069,4.62107 1.77111,5.36628 5.46355,3.06032 2.89684,-1.80911 3.82711,-0.33298 1.76934,2.80757 -0.95451,1.45678 -1.73548,3.62053 -1.73548,4.80835 0,3.17293 -3.63795,2.73201 -6.25844,-0.75854 -1.84421,-2.45653 -2.35928,-2.66638 -3.25574,-1.32645 -1.42431,2.12888 -1.39007,8.21489 0.0489,8.69455 0.79604,0.26534 0.74187,1.26986 -0.17727,3.28716 -0.9794,2.14954 -1.8457,2.73934 -3.33106,2.26791 -1.10408,-0.35043 -3.58968,0.1137 -5.52356,1.03138 -3.52474,1.6726 -5.15133,5.07999 -5.31179,11.12719 -0.076,2.86467 -7.40897,8.34454 -8.59607,6.42377 z"
     id="path4252"
     inkscape:connector-curvature="0" /><path
     style="fill:#60beef;fill-opacity:0.56129031"
     d="m 279.37519,963.82005 c 0.023,-3.4532 0.91367,-10.44929 1.97927,-15.54687 l 1.93744,-9.26833 -3.45322,-2.6339 -3.45323,-2.6339 -2.09319,5.00468 -2.0932,5.00467 -0.80182,-7.1694 c -0.72147,-6.45091 -0.0192,-12.39393 2.12467,-17.98082 0.71413,-1.86099 -5.15012,-4.73331 -12.2283,-5.98946 -3.33039,-0.59103 -4.66656,-1.30602 -4.41606,-2.36305 1.62701,-6.86561 5.66576,-21.65482 6.10991,-22.37347 0.83687,-1.35409 4.7243,-1.08149 10.95216,0.76798 3.08169,0.91517 5.91412,1.35471 6.29428,0.97678 0.38016,-0.37794 0.92996,-8.72858 1.22178,-18.55697 0.29182,-9.8284 0.8423,-18.18024 1.22329,-18.55964 0.38099,-0.37941 3.55663,-0.1264 7.05698,0.56226 12.00803,2.36243 19.30994,-2.75086 19.30994,-13.52213 l 0,-5.88762 3.31613,0.66323 c 1.82387,0.36477 4.173,0.66323 5.22027,0.66323 1.68408,0 1.7787,0.45432 0.81872,3.93109 -1.57531,5.70529 -0.629,16.10086 1.91416,21.02777 3.06152,5.93115 7.9637,8.99831 14.3818,8.99831 4.66655,0 5.28526,0.2868 6.29559,2.9182 0.61624,1.60501 1.57291,7.45466 2.12594,12.99923 0.55302,5.54457 1.67646,12.10203 2.49653,14.57213 0.949,2.85847 1.11041,4.72632 0.44402,5.13817 -0.57585,0.35589 -2.10302,2.87137 -3.39372,5.58995 -2.23985,4.71778 -4.81614,6.28541 -4.09723,2.49311 0.18714,-0.98719 0.58593,-3.01579 0.88621,-4.50799 0.44007,-2.1869 -0.31826,-3.49386 -3.90995,-6.73874 -4.01269,-3.62523 -4.61848,-3.86306 -6.09047,-2.39107 -1.472,1.472 -1.44755,1.92002 0.24577,4.50436 1.63582,2.49658 1.67509,2.98465 0.3019,3.75313 -0.86815,0.48584 -2.36791,2.08821 -3.33281,3.56083 -1.6157,2.46587 -1.61939,2.88348 -0.0467,5.28373 2.02968,3.0977 1.26479,4.82189 -2.13912,4.82189 -2.05062,0 -2.93115,1.14261 -5.11106,6.63227 -1.4485,3.64774 -3.86384,10.9397 -5.36743,16.20435 -1.50359,5.26465 -3.4157,11.19387 -4.24914,13.17603 -1.72125,4.09365 -1.82361,3.91614 -3.93865,-6.83069 -0.68918,-3.50184 -1.73997,-7.2887 -2.33509,-8.41525 -0.99666,-1.88666 -1.18395,-1.9089 -2.37372,-0.28178 -1.75804,2.40425 -2.67359,1.16663 -2.67359,-3.61411 0,-2.19929 -0.51418,-5.34299 -1.14262,-6.98599 l -1.14261,-2.98727 -2.50345,2.89831 c -4.18773,4.84826 -4.47945,12.525 -0.92821,24.4266 0.39926,1.33811 -0.0442,1.85704 -1.587,1.85704 -1.17761,0 -2.52298,0.5969 -2.98971,1.32645 -0.46673,0.72955 -1.78264,1.32645 -2.92426,1.32645 -1.54044,0 -2.42385,1.20264 -3.42602,4.66405 -1.94157,6.70601 -2.46253,6.59647 -2.4152,-0.50783 z"
     id="path4254"
     inkscape:connector-curvature="0" /><path
     style="fill:#60beef;fill-opacity:0.56129031"
     d="m 245.75711,990.70282 c 0.37413,-1.60501 0.98402,-4.16482 1.35531,-5.68848 0.5794,-2.37763 0.38783,-2.6791 -1.35157,-2.12704 -1.69742,0.53875 -2.20468,-0.12411 -3.12258,-4.08038 -0.99554,-4.2909 -0.90975,-4.75222 0.93653,-5.0358 1.72178,-0.26446 2.05535,-1.28543 2.18221,-6.67915 0.12034,-5.11634 -0.16291,-6.31835 -1.44199,-6.11941 -1.33495,0.20763 -1.59226,-1.6755 -1.59495,-11.67278 -0.002,-7.78553 -0.47859,-12.75495 -1.37368,-14.32645 l -1.37048,-2.40609 -4.86596,3.34787 c -2.86481,1.97104 -6.70814,3.55551 -9.34537,3.85276 -4.98214,0.56156 -5.42257,0.15539 -12.06039,-11.12229 -3.09977,-5.26652 -3.19427,-5.75603 -1.84797,-9.57186 0.78038,-2.21182 1.75918,-6.63824 2.17512,-9.83648 0.41594,-3.19824 1.45344,-8.96913 2.30556,-12.82419 l 1.5493,-7.00921 6.28311,1.45154 c 3.4557,0.79835 7.45511,1.89714 8.88756,2.44175 3.30641,1.2571 4.17604,0.22877 6.45221,-7.62972 0.96891,-3.34514 2.2118,-6.36028 2.762,-6.70032 1.05514,-0.65212 14.59881,2.34017 16.82807,3.71793 0.99222,0.61322 0.51689,3.53288 -1.9845,12.18967 -1.80908,6.26083 -4.04153,12.83811 -4.96102,14.6162 -1.38309,2.67461 -1.42545,3.39114 -0.24526,4.14941 1.82819,1.17461 7.71965,2.87785 12.92397,3.73637 3.94605,0.65095 4.04927,0.77814 3.40758,4.19863 -1.86404,9.9362 -0.47176,25.5759 2.43686,27.37352 0.61607,0.38076 0.18106,2.85384 -1.0907,6.20085 -1.46294,3.85013 -1.79859,6.0597 -1.08814,7.16315 0.69721,1.08291 0.54689,2.53647 -0.4678,4.52344 -1.01267,1.983 -1.17348,3.5288 -0.49834,4.79031 0.68491,1.27976 0.52897,2.50232 -0.49837,3.9073 -0.82235,1.12463 -1.51106,1.59536 -1.53048,1.04608 -0.0194,-0.54928 -0.93575,0.0808 -2.03629,1.40024 l -2.00099,2.39893 -1.27102,-3.85121 c -0.69906,-2.11817 -1.03519,-5.94345 -0.74696,-8.50061 0.39391,-3.49473 0.16112,-4.6494 -0.93734,-4.6494 -0.99751,0 -1.46139,-1.34734 -1.46139,-4.24465 0,-4.93597 -1.11115,-5.33432 -4.13974,-1.48409 -3.43434,4.36606 -3.72398,8.91408 -1.27644,20.04309 2.67314,12.15483 2.63328,11.15353 0.44405,11.15353 -0.98375,0 -2.96118,1.07443 -4.39429,2.38762 l -2.60566,2.38761 0.68023,-2.91819 z"
     id="path4256"
     inkscape:connector-curvature="0" /><path
     style="fill:#60beef;fill-opacity:0.56129031"
     d="m 188.04924,936.2342 c -7.03636,-4.59811 -12.19932,-9.45596 -19.28215,-18.14266 -2.93913,-3.60468 -6.79031,-7.15309 -8.55819,-7.88536 -3.00822,-1.24605 -3.39164,-1.12616 -5.97993,1.86993 -1.52109,1.76075 -3.24314,4.00221 -3.82678,4.98102 -0.9707,1.62796 -1.76642,1.51467 -9.33492,-1.32903 -10.25044,-3.85139 -11.35773,-4.75855 -11.35773,-9.30499 0,-4.55295 2.20906,-8.94501 7.9141,-15.7348 2.45198,-2.91819 6.97535,-9.05649 10.05193,-13.64065 3.07659,-4.58417 6.93093,-9.10226 8.56521,-10.04021 2.52416,-1.44867 3.48662,-3.46849 6.39425,-13.41897 1.88256,-6.44249 4.55022,-14.81751 5.92813,-18.61116 l 2.50529,-6.89756 -1.77631,-11.02534 -1.7763,-11.02535 2.58538,-2.12822 c 4.63574,-3.81605 15.50878,-8.35163 19.16132,-7.99297 l 3.4323,0.33703 1.87033,9.8384 c 1.68019,8.83813 1.70966,10.22295 0.28995,13.62081 -1.81859,4.35249 -1.12198,7.44161 3.97576,17.63055 2.78264,5.56169 3.03766,7.03729 3.03766,17.57593 0,11.20137 0.0779,11.57914 2.95659,14.33709 1.62612,1.55792 4.4744,3.13615 6.3295,3.50717 3.24643,0.64929 3.32022,0.77933 1.96757,3.46763 -2.92001,5.80332 -3.08652,8.90788 -0.57919,10.79916 l 2.3292,1.75692 -3.31834,13.72059 c -1.8251,7.54633 -3.31835,16.362 -3.31835,19.5904 0,4.30114 -0.53911,6.44847 -2.01729,8.03511 -2.30705,2.47633 -11.24124,9.90767 -11.91131,9.90767 -0.24502,0 -3.06097,-1.70916 -6.25768,-3.79814 z"
     id="path4258"
     inkscape:connector-curvature="0" /><path
     style="fill:#60beef;fill-opacity:0.56129031"
     d="m 174.27834,792.4201 c 0,-2.06551 -1.1278,-3.84786 -3.85963,-6.09967 -3.63224,-2.99399 -3.86668,-3.5624 -3.97936,-9.64799 l -0.11973,-6.46658 -5.63633,-2.11154 c -4.79558,-1.79658 -19.46056,-5.04107 -35.70945,-7.90039 l -4.20511,-0.73998 2.36834,-1.78645 2.36835,-1.78644 -2.60549,-7.66045 c -3.71966,-10.93626 -15.65386,-38.46039 -16.67605,-38.46039 -1.67531,0 -12.156338,5.1831 -18.960815,9.37656 l -6.897552,4.2508 -0.73659,-11.85419 c -0.610012,-9.81713 -6.866645,-48.49797 -8.911878,-55.09655 -0.433153,-1.39749 0.03295,-1.86106 1.883536,-1.87328 5.581563,-0.0369 5.609651,-0.2405 3.093851,-22.42667 -1.280657,-11.29378 -3.020277,-24.59309 -3.865822,-29.55402 -2.271764,-13.32877 -2.0234,-19.88296 0.93888,-24.77653 2.155134,-3.5602 2.331106,-4.61228 1.372296,-8.20446 -0.952753,-3.5695 -0.80062,-4.52531 1.137541,-7.14681 2.232686,-3.01987 2.233018,-3.03313 0.157738,-6.31081 -1.769956,-2.79545 -1.875233,-3.6119 -0.706956,-5.48261 2.529011,-4.04959 10.418187,-2.11179 11.710779,2.87648 0.751934,2.90181 1.369005,3.41478 4.107765,3.41478 3.375373,0 7.344746,1.6489 8.592003,3.56917 1.161564,1.78833 6.447484,-0.56906 8.042574,-3.58679 2.18995,-4.14311 1.00064,-11.27975 -2.48627,-14.9193 -1.63498,-1.70656 -3.59964,-3.10283 -4.36591,-3.10283 -0.766261,0 -1.393205,-0.67965 -1.393205,-1.51032 0,-0.83068 -1.193807,-2.92909 -2.652904,-4.66313 -3.725885,-4.42796 -3.447027,-8.59267 0.925789,-13.82659 2.601839,-3.1142 3.4401,-5.00846 3.07094,-6.93957 -0.407649,-2.13248 0.4817,-3.55681 4.51094,-7.22447 2.76028,-2.51258 7.09934,-6.52568 9.64236,-8.918 3.64109,-3.42532 4.73401,-3.98909 5.1429,-2.6529 1.29127,4.21962 6.30795,34.18316 10.67756,63.77473 4.89584,33.15536 9.36538,58.50075 11.13893,63.16555 1.29538,3.40709 4.39107,3.39953 10.8267,-0.0264 8.05151,-4.28615 9.45526,-3.48522 10.86071,6.19668 l 0.74548,5.1355 6.02241,-0.70936 c 3.31233,-0.39016 8.87997,-1.2866 12.37253,-1.9921 l 6.35012,-1.28273 3.32686,17.01866 c 1.82977,9.36027 3.65252,19.25482 4.05055,21.98789 l 0.72368,4.96924 -3.50311,0.33657 c -3.24096,0.31139 -3.52855,0.64772 -3.84308,4.49428 -0.187,2.28673 0.70211,8.37514 1.97579,13.52981 2.59493,10.50195 2.64541,10.53515 12.54663,8.25224 2.5476,-0.58739 5.48422,-0.79749 6.52585,-0.4669 1.59909,0.50754 1.72003,1.06156 0.77709,3.55969 -1.3658,3.61845 -0.57378,7.10148 2.7178,11.9519 1.72226,2.53788 2.2505,4.33446 1.69323,5.75882 -1.37137,3.50519 -1.04223,12.05413 0.7275,18.89561 1.90957,7.38207 3.10905,9.3022 5.28852,8.46585 0.93218,-0.3577 1.51416,0.088 1.51416,1.15951 0,0.95731 1.19381,4.09643 2.65291,6.97582 2.97357,5.86806 3.41121,10.78358 1.12872,12.67787 -1.19087,0.98833 -2.93582,0.86886 -7.97949,-0.54632 -6.02911,-1.69167 -6.58448,-1.69437 -8.41176,-0.0408 -1.07603,0.97381 -3.29941,4.93048 -4.94084,8.7926 l -2.98441,7.02204 2.32291,1.88099 c 1.27761,1.03454 2.86254,2.06086 3.52206,2.2807 0.87182,0.2906 0.88613,0.98455 0.0524,2.54236 -0.99812,1.86501 -2.28979,2.16172 -9.96792,2.28963 -4.85166,0.0809 -12.28324,1.03866 -16.51462,2.12855 l -7.69342,1.9816 0,-2.91823 -1e-5,4e-5 z"
     id="path4260"
     inkscape:connector-curvature="0" /><path
     style="fill:#60beef;fill-opacity:0.56129031"
     d="m 35.892512,948.25634 c -0.3816,-11.81869 -1.392439,-56.58645 -2.24631,-99.48392 C 31.191249,725.43845 29.258523,659.51558 26.093976,591.17538 l -0.700215,-15.12155 4.986856,0 c 4.020396,0 5.487496,-0.5402 7.570115,-2.78739 2.441135,-2.63403 2.715664,-2.69421 4.989849,-1.09396 6.894172,4.85113 8.380604,6.67761 7.686159,9.44449 -0.801468,3.19331 0.347056,5.68221 6.124704,13.27248 4.220209,5.54422 6.66497,6.70889 9.058466,4.31539 0.69064,-0.69064 1.439244,-1.04878 1.663565,-0.79587 0.224322,0.25291 1.69528,10.72658 3.268798,23.27481 1.573517,12.54824 3.119017,24.0972 3.434446,25.66436 0.522584,2.59637 0.223162,2.91509 -3.372245,3.58959 l -3.945752,0.74023 0.733119,6.47991 c 0.403215,3.56396 1.89538,12.18663 3.31592,19.16151 3.278348,16.09674 5.743686,34.82703 5.743686,43.63739 0,4.78658 0.400781,6.8432 1.333564,6.8432 0.733459,0 6.033505,-2.64777 11.777878,-5.88394 5.744372,-3.23616 11.720001,-6.13908 13.279171,-6.45091 2.51521,-0.50304 2.99847,-0.10881 4.28586,3.49633 0.79805,2.2348 4.2503,10.80888 7.67166,19.05349 6.66093,16.05112 7.02264,17.37524 4.74648,17.37524 -0.8108,0 -2.54669,0.86846 -3.85754,1.92992 l -2.38336,1.92993 5.30671,2.28288 c 2.91869,1.25559 11.45929,3.49594 18.97911,4.97854 7.5198,1.48261 16.15299,3.4641 19.18485,4.40331 5.4925,1.70146 5.50638,1.71694 3.83114,4.27366 -1.53533,2.34321 -1.53442,2.67773 0.0106,3.85254 0.9305,0.70758 2.61795,3.43537 3.74989,6.06175 1.13195,2.62637 3.0637,5.60622 4.29279,6.62187 3.18094,2.62857 2.85485,6.58713 -0.75432,9.15709 l -2.98902,2.12836 0.44065,12.00428 c 0.46981,12.79874 -0.39399,18.20657 -5.81592,36.41101 -2.45606,8.24639 -3.51548,10.20564 -7.75867,14.34873 -2.70283,2.63903 -7.94048,9.32435 -11.63923,14.85626 -3.69876,5.5319 -8.55961,12.27312 -10.80188,14.9805 -2.52131,3.04415 -4.07698,6.02315 -4.07698,7.80696 0,2.19157 -0.40231,2.73007 -1.6748,2.24177 -1.04752,-0.40197 -2.887,0.56952 -4.91129,2.5938 -2.72407,2.72408 -3.75857,3.12182 -6.53404,2.51223 -6.32736,-1.38972 -7.15202,-5.02787 -4.22608,-18.64394 1.93603,-9.00942 1.47959,-11.36222 -3.3598,-17.3185 l -2.56034,-3.15124 -9.863267,5.06124 c -5.424797,2.78368 -13.83,7.90255 -18.678229,11.37525 -4.848228,3.4727 -9.268232,6.314 -9.822229,6.314 -0.553999,0 -1.984918,-0.5969 -3.179824,-1.32645 -1.848646,-1.1287 -2.400232,-1.01936 -3.699667,0.7334 -0.839913,1.13291 -1.527114,3.35168 -1.527114,4.93059 0,3.59835 5.941355,9.07898 10.85422,10.01253 2.895216,0.55016 4.302879,1.97272 8.480112,8.5699 l 5.008646,7.91024 -3.267992,10.31807 c -1.812681,5.72319 -4.6173,12.04187 -6.297948,14.18897 -2.697145,3.44572 -2.961096,4.4523 -2.403058,9.16406 l 0.626897,5.29317 -7.826891,0.77479 c -4.30479,0.42614 -11.365317,1.67444 -15.690061,2.774 -4.324743,1.09958 -7.967262,1.99922 -8.094487,1.99922 -0.127226,0 -0.543537,-9.66984 -0.925136,-21.48853 z"
     id="path4262"
     inkscape:connector-curvature="0" /><path
     style="fill:#60beef;fill-opacity:0.56129031"
     d="m 156.04594,1036.8858 c -0.43462,-3.782 -4.94166,-4.8868 -5.8449,-1.4328 -0.31733,1.2134 -0.83601,2.2062 -1.15264,2.2062 -0.88013,0 -10.73828,-7.7127 -16.68596,-13.0546 l -5.30581,-4.7654 1.85704,-3.1918 c 2.84831,-4.8955 2.31262,-6.8605 -3.71407,-13.6237 -3.0641,-3.43855 -6.62525,-7.59636 -7.91365,-9.23957 -2.65436,-3.38535 -6.09183,-3.14898 -7.24949,0.49848 -0.43786,1.37959 -1.26316,1.92129 -2.31323,1.51835 -0.89788,-0.34455 -3.6005,-1.12335 -6.00582,-1.73067 l -4.373307,-1.10422 -0.07109,-7.63124 c -0.10669,-11.45419 -0.820994,-13.24315 -6.21015,-15.55321 -4.384568,-1.87945 -4.879302,-1.89045 -9.593429,-0.21332 -4.794853,1.70584 -5.024764,1.69449 -6.50767,-0.32122 -2.119889,-2.88157 -3.804986,-9.59629 -3.41236,-13.59748 0.248697,-2.53444 0.951662,-3.47654 2.941011,-3.94148 2.765407,-0.64633 3.993902,-3.3554 4.177577,-9.21237 0.05817,-1.85514 0.906961,-4.17416 1.886186,-5.15339 1.352167,-1.35216 1.506247,-2.19993 0.640587,-3.52457 -0.893922,-1.36789 -0.574958,-2.346 1.47849,-4.53385 l 2.618314,-2.78969 -4.681413,-7.29135 c -5.437897,-8.46958 -11.665563,-14.44603 -17.101564,-16.41172 -3.085601,-1.11577 -3.819353,-1.91603 -3.751961,-4.09204 0.04608,-1.48776 0.324632,-2.10811 0.619011,-1.37857 0.29438,0.72955 1.201163,1.32646 2.015074,1.32646 0.813911,0 9.552087,-5.01399 19.418168,-11.1422 9.866081,-6.12821 18.221034,-11.1422 18.566554,-11.1422 0.34553,0 1.40126,1.49488 2.34609,3.32197 1.4328,2.77073 1.60331,5.45603 1.02754,16.18272 -0.62449,11.63451 -0.49259,13.17485 1.38338,16.15511 1.64032,2.60589 3.0391,3.42983 6.69313,3.94257 4.19835,0.58911 4.86126,0.36049 7.27234,-2.50806 1.4591,-1.73595 2.98711,-3.15196 3.39558,-3.1467 0.40847,0.005 2.9025,1.46722 5.54229,3.24879 2.63979,1.78157 8.42807,4.91567 12.86284,6.96466 9.04587,4.17945 9.10368,4.16679 14.42551,-3.15857 l 2.97637,-4.09688 14.67772,14.17792 c 8.07275,7.79786 16.1391,15.00211 17.92521,16.00945 3.23873,1.82658 3.26285,1.8208 8.93364,-2.14098 3.12737,-2.18487 6.6847,-5.45428 7.90518,-7.26534 l 2.21903,-3.29283 1.39748,3.15711 c 3.45954,7.81564 16.71693,11.75509 24.20166,7.19156 1.89683,-1.15652 3.44878,-1.85514 3.44878,-1.5525 0,1.49919 -5.5183,11.00297 -8.28116,14.26209 -2.5058,2.95587 -3.90877,3.70391 -6.96583,3.71407 -3.27893,0.0109 -3.7364,-0.27617 -3.1891,-2.00122 0.56734,-1.78823 0.23884,-1.93552 -2.93113,-1.3142 -4.75328,0.93165 -8.39013,3.73136 -11.13033,8.56834 l -2.25445,3.9795 -1.45338,-3.2834 c -0.79935,-1.80587 -1.97908,-3.2834 -2.6216,-3.2834 -1.74726,0 -4.50216,3.4159 -5.83237,7.23175 -0.74537,2.13818 -1.8915,3.37987 -3.11972,3.37987 -1.06782,0 -2.81182,1.07656 -3.87555,2.39235 -1.06373,1.31579 -3.22149,2.96515 -4.79502,3.66524 -2.07984,0.92536 -3.18563,2.51759 -4.05006,5.83166 -2.58801,9.92198 -2.55526,9.86457 -5.62631,9.86457 -3.11541,0 -4.9292,1.91139 -4.95559,5.22225 -0.008,1.12132 -0.84557,2.9552 -1.85919,4.0752 -1.75298,1.937 -1.74535,2.1078 0.15633,3.4983 1.0996,0.8041 2.40645,1.2103 2.90411,0.9027 2.27609,-1.4067 0.60066,1.6436 -1.74808,3.1826 -4.56839,2.9933 -2.35987,7.5555 2.41937,4.9978 1.71903,-0.92 2.2818,-0.6301 3.44541,1.7753 0.76493,1.5812 1.2846,3.6847 1.15481,4.6745 -0.12978,0.9897 0.5405,3.3011 1.48952,5.1363 0.94902,1.8352 1.48885,3.9533 1.19963,4.707 -0.83024,2.1636 -8.38932,2.6554 -9.98197,0.6494 -1.17261,-1.4769 -1.90363,-1.0668 -6.02904,3.3823 l -4.69463,5.0629 -0.33794,-2.9406 z"
     id="path4264"
     inkscape:connector-curvature="0" /><path
     style="fill:#60beef;fill-opacity:0.56129031"
     d="m 82.487758,1151.8033 c -4.153455,-5.0687 -5.836311,-5.3766 -5.836311,-1.0677 0,1.533 -0.616491,2.5903 -1.510325,2.5903 -2.570758,0 -8.244981,-5.5347 -10.290151,-10.0372 -2.201814,-4.8472 -2.608638,-14.7687 -0.863303,-21.0538 1.037442,-3.736 0.885249,-4.2982 -2.076604,-7.6716 -1.75785,-2.0021 -5.930273,-7.7491 -9.272051,-12.7712 -5.538641,-8.3236 -8.817514,-11.648 -14.675162,-14.8789 -1.142632,-0.6302 -2.502555,-2.7779 -3.022052,-4.7726 -1.278919,-4.9105 -0.433373,-15.2301 1.432066,-17.4779 1.03436,-1.2463 1.423208,-3.8867 1.22427,-8.3132 -0.160343,-3.5678 0.397437,-10.0001 1.23951,-14.294 1.381247,-7.0432 1.36093,-8.1853 -0.207653,-11.6728 -1.422088,-3.1617 -1.8048,-8.6367 -2.101723,-30.0667 l -0.363027,-26.20104 4.060384,-1.08375 c 19.66905,-5.24983 25.847822,-5.56395 31.673865,-1.61029 3.606265,2.44727 4.681771,2.66197 10.153717,2.02688 9.271775,-1.0761 9.972841,-0.59381 11.491802,7.90578 1.030623,5.76702 1.034045,7.84127 0.01607,9.74337 -1.127222,2.10624 -0.986396,2.62787 1.09663,4.06206 1.314464,0.90502 3.482169,2.64931 4.817125,3.87621 3.532179,3.24628 10.021269,2.69718 12.284429,-1.03957 l 1.68123,-2.77586 7.1551,7.96301 7.15511,7.9629 -2.20407,3.5663 c -1.21223,1.9614 -2.20406,4.0683 -2.20406,4.6819 0,2.0704 10.50342,12.6274 16.68192,16.767 3.37319,2.26 6.35375,4.2597 6.62347,4.4437 0.26972,0.1841 -0.053,1.2048 -0.71715,2.2682 -3.74793,6.0014 -3.72257,19.4012 0.0412,21.7753 1.35012,0.8516 1.20126,1.4981 -1.01356,4.4019 -1.42786,1.872 -4.01042,3.9895 -5.73902,4.7055 -1.96787,0.8152 -3.14289,2.0777 -3.14289,3.3771 0,3.5725 -5.56298,7.9453 -13.04979,10.2577 -12.43289,3.8402 -16.31003,6.721 -15.78478,11.7284 0.16328,1.5566 -0.68374,5.1179 -1.88228,7.914 -2.47038,5.7632 -2.77593,10.3481 -0.89081,13.3666 1.08243,1.7333 0.91282,2.4627 -1.06116,4.5639 -1.29224,1.3756 -2.34952,3.7666 -2.34952,5.3135 0,1.6935 -0.81575,3.249 -2.050457,3.9098 -1.127752,0.6035 -2.350456,2.0426 -2.71712,3.1978 -0.598863,1.8869 -1.307665,2.0335 -6.969419,1.4417 -5.355213,-0.5597 -6.302756,-0.4023 -6.302756,1.0468 0,1.9706 3.117485,3.9026 6.297209,3.9026 2.783145,0 2.750413,0.7065 -0.341976,7.3811 l -2.534061,5.4695 -3.951832,-4.8227 z"
     id="path4266"
     inkscape:connector-curvature="0" /><path
     style="fill:#60beef;fill-opacity:0.56129031"
     d="m 525.01576,858.82806 c -0.42674,-0.51419 -2.91834,-2.04952 -5.5369,-3.41184 -5.97413,-3.10809 -7.00657,-4.20963 -6.82528,-7.28216 0.0859,-1.45563 -0.3612,-3.33096 -1.15907,-4.8617 l -1.2989,-2.49198 1.94186,-3.94447 c 1.06801,-2.16945 2.39293,-6.33379 2.94425,-9.25409 l 1.00241,-5.30964 4.46415,-2.58547 c 3.72387,-2.15673 4.4654,-2.84962 4.47168,-4.17839 0.004,-0.8761 -0.54493,-2.09288 -1.22015,-2.70395 -1.74568,-1.57981 -1.54861,-2.76225 0.46038,-2.76237 0.92843,-6e-5 3.85311,-0.4144 6.49929,-0.92076 2.64618,-0.50636 5.73413,-0.92065 6.86211,-0.92065 1.94508,0 2.09954,0.16626 2.99411,3.22265 1.24122,4.24078 3.92524,7.37253 8.04669,9.38897 3.7659,1.84248 4.59696,3.50372 4.5922,9.17961 -0.007,8.79921 -8.02086,15.41336 -17.03632,14.0614 -3.37054,-0.50544 -3.82354,-1.53853 -3.82816,-8.73028 -0.004,-6.58797 -0.79798,-9.62729 -2.86857,-10.984 -1.52443,-0.99884 -1.62619,-0.98466 -2.73182,0.38073 -1.58497,1.95736 -1.47051,5.62046 0.40706,13.02743 1.04143,4.10842 1.49785,7.39082 1.38113,9.93264 -0.17246,3.75592 -0.15305,3.80576 1.82065,4.67447 1.09724,0.48294 1.99497,1.31922 1.99497,1.85839 0,1.61598 -1.87011,3.78342 -4.05045,4.69443 -2.51844,1.05227 -2.38586,1.05541 -3.32732,-0.079 z"
     id="path4268"
     inkscape:connector-curvature="0" /><path
     style="fill:#60beef;fill-opacity:0.56129031"
     d="m 491.61374,834.04713 c -0.18644,-0.30166 0.0735,-1.71753 0.57761,-3.14637 0.50412,-1.42883 0.92577,-3.87523 0.93701,-5.43644 l 0.0204,-2.83855 1.19196,1.43026 c 1.43717,1.72448 2.44214,5.10795 2.4468,8.23768 0.003,2.27115 -0.0289,2.30189 -2.4157,2.30189 -1.33052,0 -2.57167,-0.24681 -2.7581,-0.54847 z"
     id="path4270"
     inkscape:connector-curvature="0" /><path
     style="fill:#60beef;fill-opacity:0.56129031"
     d="m 417.9325,854.39186 c 0.25186,-0.59082 0.58817,-2.62548 0.74734,-4.52147 0.25503,-3.03784 0.12858,-3.5599 -1.06478,-4.39575 -1.72718,-1.20977 -1.26038,-2.87177 1.21775,-4.33563 1.01326,-0.59855 1.87166,-1.41794 1.90754,-1.82087 0.0717,-0.80456 0.1962,-4.34216 0.4094,-11.62821 l 0.1392,-4.75724 2.2141,0 c 1.86807,0 2.14493,0.16789 1.77148,1.07422 -1.12347,2.72658 -2.10651,7.77149 -2.72114,13.9648 -0.80236,8.08504 -1.64912,12.10294 -3.20177,15.19248 -1.15059,2.2895 -2.29311,3.27789 -1.41912,1.22767 z"
     id="path4272"
     inkscape:connector-curvature="0" /><path
     style="fill:#60beef;fill-opacity:0.56129031"
     d="m 464.71313,860.12232 c -0.54973,-1.15279 -1.56768,-2.27631 -2.26212,-2.49672 -1.6265,-0.51623 -1.60015,-1.89789 0.0831,-4.35437 l 1.34569,-1.96391 4.15832,2.14521 c 4.39405,2.26681 5.76356,3.42781 5.17218,4.3847 -0.53695,0.8688 -5.98509,4.38106 -6.79581,4.38106 -0.386,0 -1.1516,-0.94319 -1.70132,-2.09597 z"
     id="path4274"
     inkscape:connector-curvature="0" /><path
     style="fill:#60beef;fill-opacity:0.56129031"
     d="m 460.98555,877.10385 c -2.45335,-1.62604 -3.35653,-2.57223 -3.07617,-3.22265 1.13749,-2.63887 0.92716,-5.00081 -0.65873,-7.39726 -2.23484,-3.37707 -0.95645,-3.68182 3.67224,-0.87541 3.14342,1.90588 4.07458,2.1819 6.80657,2.01765 l 3.16498,-0.19027 0.3884,2.93582 c 0.45727,3.45642 0.16288,4.12331 -1.82022,4.12331 -1.20107,0 -1.59738,0.45559 -2.13586,2.45535 -0.8404,3.12099 -1.82778,3.14489 -6.34121,0.15346 z"
     id="path4276"
     inkscape:connector-curvature="0" /><path
     style="fill:#60beef;fill-opacity:0.56129031"
     d="m 509.06771,882.16801 c -0.79292,-0.84403 -1.969,-1.53459 -2.6135,-1.53459 -0.64451,0 -1.07976,-0.24281 -0.96722,-0.53957 0.2694,-0.71041 4.72049,-5.59881 5.09795,-5.59881 0.16102,0 0.72128,0.82868 1.24504,1.84151 0.52375,1.01284 1.35953,1.84152 1.85727,1.84152 1.23118,0 1.13676,0.76747 -0.32268,2.62284 -0.67522,0.85841 -1.22767,1.86245 -1.22767,2.23122 0,1.16923 -1.57574,0.72559 -3.06919,-0.86412 z"
     id="path4278"
     inkscape:connector-curvature="0" /><path
     style="fill:#60beef;fill-opacity:0.56129031"
     d="m 518.677,894.65496 c -0.77904,-2.90978 -0.42595,-6.01743 0.82595,-7.26933 0.67522,-0.67522 1.51762,-1.22768 1.87199,-1.22768 1.23341,0 4.19819,1.84354 5.14988,3.20227 2.25643,3.22151 0.5354,5.56935 -4.63355,6.32112 -2.61073,0.3797 -2.85904,0.3004 -3.21427,-1.02638 z m 4.15185,-2.11739 c 1.35877,-0.52141 1.21527,-3.13648 -0.21409,-3.90145 -1.50451,-0.80519 -3.11181,0.63243 -3.11181,2.7833 0,1.52711 1.20472,1.93213 3.3259,1.11815 z"
     id="path4280"
     inkscape:connector-curvature="0" /><path
     style="fill:#60beef;fill-opacity:0.56129031"
     d=""
     id="path4282"
     inkscape:connector-curvature="0" /><path
     style="fill:#60beef;fill-opacity:0.56129031"
     d="m 468.79671,912.18439 c 0.87527,-6.43288 1.68626,-8.80308 3.54815,-10.36976 2.4036,-2.02249 3.38961,-1.94122 3.88633,0.32032 0.48265,2.1975 -0.70555,9.89759 -1.73821,11.2644 -0.39651,0.52482 -1.93245,1.14284 -3.4132,1.37339 l -2.69227,0.41917 0.4092,-3.00752 z"
     id="path4284"
     inkscape:connector-curvature="0" /><path
     style="fill:#60beef;fill-opacity:0.56129031"
     d="m 435.3508,911.17183 c -0.031,-0.42201 -0.10008,-1.59598 -0.15346,-2.60881 -0.10298,-1.95404 -0.57237,-2.08575 -4.24045,-1.18991 -1.37597,0.33605 -1.68806,0.20494 -1.68806,-0.70917 0,-0.61679 -0.75962,-3.27243 -1.68805,-5.90142 l -1.68805,-4.77998 -2.30189,-0.002 c -2.59908,-0.002 -2.55921,0.0789 -1.57806,-3.19586 0.60182,-2.00868 0.93811,-2.35839 1.99497,-2.07457 0.69913,0.18776 1.61642,0.34514 2.03844,0.34975 0.42348,0.005 0.77151,0.76478 0.77669,1.69644 0.0124,2.23164 0.86662,3.48893 2.05939,3.03123 0.53075,-0.20367 1.96567,-1.76317 3.18872,-3.46555 2.2883,-3.18515 2.55377,-3.35697 4.20677,-2.72266 1.23767,0.47494 1.22278,1.5159 -0.0739,5.16684 -1.47216,4.14496 -0.6504,5.82192 3.1308,6.38894 1.53789,0.23062 2.95796,0.6811 3.15571,1.00107 0.19775,0.31997 -0.59009,1.7542 -1.75076,3.18718 -1.16067,1.43298 -2.56614,3.50316 -3.12327,4.6004 -1.02487,2.01841 -2.16208,2.63467 -2.26552,1.22767 z"
     id="path4286"
     inkscape:connector-curvature="0" /><path
     style="fill:#60beef;fill-opacity:0.56129031"
     d="m 422.33954,881.86443 c 4.58912,-4.12133 9.79611,-7.37074 11.80706,-7.36817 0.73881,9.5e-4 0.98382,0.81381 1.08741,3.60773 l 0.13372,3.60651 -2.58907,0.40849 c -1.42399,0.22466 -5.14747,1.22534 -8.27441,2.22372 -3.12693,0.99838 -5.96889,1.81524 -6.31545,1.81524 -0.34656,0 1.52127,-1.93208 4.15074,-4.29352 z"
     id="path4288"
     inkscape:connector-curvature="0" /></svg>