<?xml version="1.0" encoding="iso-8859-1"?>
<!-- Generator: Adobe Illustrator 16.0.0, SVG Export Plug-In . SVG Version: 6.00 Build 0)  -->
<!DOCTYPE svg PUBLIC "-//W3C//DTD SVG 1.1//EN" "http://www.w3.org/Graphics/SVG/1.1/DTD/svg11.dtd">
<svg xmlns="http://www.w3.org/2000/svg" xmlns:xlink="http://www.w3.org/1999/xlink" version="1.1" id="Capa_1" x="0px" y="0px" width="512px" height="512px" viewBox="0 0 122.999 122.999" style="enable-background:new 0 0 122.999 122.999;" xml:space="preserve">
<g>
	<g>
		<path d="M113.108,61.498l9.891-9.74l-12.417-6.207l6.396-12.32l-13.728-2.066l2.276-13.694l-13.692,2.276L89.768,6.02    l-12.32,6.396L71.239,0l-9.74,9.891L51.758,0l-6.207,12.416L33.231,6.02l-2.066,13.727l-13.693-2.276l2.275,13.694L6.021,33.23    l6.396,12.32L0,51.758l9.891,9.74L0,71.24l12.416,6.207L6.021,89.766l13.727,2.066l-2.275,13.695l13.693-2.277l2.066,13.729    l12.32-6.396l6.207,12.416l9.74-9.892l9.74,9.892l6.207-12.416l12.32,6.396l2.067-13.729l13.692,2.277l-2.276-13.695l13.728-2.066    l-6.396-12.317l12.417-6.207L113.108,61.498z M61.142,11.992c21.261,0,39.388,13.406,46.4,32.226    c-3.312,1.93-6.701,3.628-10.162,5.089v-17.51c-2.529-3.08-5.447-5.825-8.674-8.176V52.42c-2.338,0.701-4.701,1.314-7.098,1.814    V19.349c-2.752-1.339-5.653-2.415-8.674-3.198v39.432c-2.343,0.248-4.707,0.414-7.099,0.48V14.891    c-1.539-0.152-3.099-0.232-4.676-0.232c-1.348,0-2.68,0.069-3.999,0.182v41.07c-2.343-0.146-4.712-0.396-7.097-0.709v-39.21    c-3.018,0.732-5.918,1.756-8.675,3.041v34.691c-2.494-0.531-4.866-1.125-7.097-1.75V23.139c-3.212,2.255-6.125,4.899-8.676,7.868    v18.167c-5.369-1.969-9.203-3.824-10.965-4.73C21.603,25.504,39.793,11.992,61.142,11.992z M100.046,71.031    c0.373-0.508,0.878-0.867,1.511-1.082c0.668-0.227,1.188-0.219,1.56,0.035c0.37,0.256,0.557,0.67,0.557,1.242    c0,0.573-0.187,1.116-0.557,1.631c-0.371,0.514-0.882,0.887-1.533,1.106c-0.649,0.222-1.163,0.199-1.536-0.062    c-0.374-0.26-0.561-0.68-0.561-1.254C99.485,72.078,99.672,71.541,100.046,71.031z M99.907,55.41c0-0.688,0.127-1.213,0.385-1.584    c0.256-0.37,0.738-0.676,1.445-0.916c0.717-0.246,1.197-0.272,1.449-0.075c0.25,0.197,0.375,0.636,0.375,1.323    c-0.449,5.52-0.677,8.283-1.127,13.799c-0.734,0.258-1.104,0.381-1.844,0.625C100.317,63.316,100.18,60.68,99.907,55.41z     M86.19,65.238c3.442-0.701,5.156-1.113,8.555-2.057c0,1.598,0.001,2.399,0.001,3.998c-3.399,0.944-5.112,1.354-8.556,2.057    c0,1.953,0,2.934,0,4.887c4.582-0.934,6.858-1.508,11.36-2.871c0,1.604,0,2.404,0,4.008c-6.188,1.877-9.336,2.611-15.668,3.674    c0-8.59,0-12.885,0-21.474c6.345-1.069,9.496-1.81,15.697-3.696c0,1.605,0,2.404,0,4.01c-4.513,1.368-6.797,1.944-11.392,2.881    C86.19,62.488,86.19,63.404,86.19,65.238z M60.554,63.682c0-1.604,0-2.404,0-4.009c7.563-0.053,11.354-0.364,18.845-1.554    c0,1.605,0,2.406,0,4.012c-2.881,0.457-4.325,0.643-7.225,0.932c0,6.99,0,10.488,0,17.48c-1.738,0.172-2.609,0.246-4.354,0.357    c0-6.99,0-10.488,0-17.48C64.918,63.609,63.462,63.662,60.554,63.682z M61.297,70.318c0,3.057-1.042,5.629-3.127,7.645    c-2.084,2.016-4.678,2.945-7.773,2.697c-3.096-0.25-5.674-1.596-7.742-3.949c-2.07-2.355-3.102-5.096-3.102-8.143    c0-3.057,1.031-5.422,3.102-7.18c2.068-1.758,4.646-2.467,7.742-2.219c3.096,0.25,5.689,1.372,7.773,3.463    C60.254,64.725,61.297,67.262,61.297,70.318z M39.04,57.96c-3.447,8.002-5.074,11.731-8.482,19.493l-4.354-1.32    c-3.396-9.555-4.982-15.488-8.321-25.285c1.117,0.636,3.227,1.567,4.467,2.01c2.39,7.059,3.593,11.355,6.008,18.291    c2.461-5.646,3.697-8.5,6.181-14.274C36.089,57.25,37.483,57.642,39.04,57.96z M61.142,111.004    c-23.117,0-42.531-15.846-47.979-37.27C35,86.624,84.493,88.836,109.03,74.078C103.463,95.326,84.135,111.004,61.142,111.004z" fill="#d4faca"/>
		<path d="M50.383,63.182c-1.925-0.154-3.488,0.32-4.693,1.467c-1.205,1.147-1.809,2.662-1.809,4.572s0.604,3.596,1.809,5.027    s2.779,2.246,4.724,2.402c1.925,0.154,3.491-0.408,4.703-1.646c1.212-1.237,1.817-2.823,1.817-4.733s-0.604-3.525-1.816-4.865    C53.907,64.064,52.328,63.338,50.383,63.182z" fill="#d4faca"/>
		<polygon points="36.099,90.043 32.955,84.938 31.491,88.98 26.476,88.531 30.854,92.952 30.895,97.782 35.071,96.468 40.109,99.9     38.307,94.665 41.382,91.964   " fill="#d4faca"/>
		<polygon points="80.331,99.9 85.369,96.468 89.546,97.782 89.585,92.952 93.965,88.531 88.95,88.98 87.485,84.938 84.342,90.043     79.059,91.964 82.134,94.665   " fill="#d4faca"/>
		<polygon points="54.062,94.09 57.778,97.717 56.902,102.838 61.5,100.419 66.096,102.838 65.219,97.717 68.938,94.09     63.798,93.343 61.5,88.688 59.202,93.343   " fill="#d4faca"/>
	</g>
</g>
<g>
</g>
<g>
</g>
<g>
</g>
<g>
</g>
<g>
</g>
<g>
</g>
<g>
</g>
<g>
</g>
<g>
</g>
<g>
</g>
<g>
</g>
<g>
</g>
<g>
</g>
<g>
</g>
<g>
</g>
</svg>
